<svg id="Layer_1" data-name="Layer 1" xmlns="http://www.w3.org/2000/svg" viewBox="0 0 351.4 349.79"><defs><style>.cls-1{fill:#231f20;}</style></defs><title>logo black</title><path class="cls-1" d="M136.93,191.4v12.37h-1.68V191.4h-2.61v-2.23h6.89v2.23Z"/><path class="cls-1" d="M146,203.77v-6.85h-3.47v6.85h-1.67v-14.6h1.67v5.47H146v-5.47h1.68v14.6Z"/><path class="cls-1" d="M149.77,203.77v-14.6H155v2.23h-3.51v3.24h3.1v2.23h-3.1v4.66h3.66v2.24Z"/><path class="cls-1" d="M163.86,204c-2.41,0-4-3.37-4-7.53s1.59-7.55,4-7.55c1.32,0,2.35.9,2.95,2.54l-.91,1.36c-.49-1-1.07-1.62-1.9-1.62-1.31,0-2.44,1.92-2.44,5.27s1.13,5.25,2.44,5.25c.83,0,1.41-.63,1.9-1.6l.91,1.34C166.18,203.11,165.18,204,163.86,204Z"/><path class="cls-1" d="M168.35,203.77v-14.6H170v12.36h3.42v2.24Z"/><path class="cls-1" d="M174.73,203.77v-14.6h5.19v2.23h-3.51v3.24h3.1v2.23h-3.1v4.66h3.66v2.24Z"/><path class="cls-1" d="M186.77,203.77v-4.71h-3.32v4.71h-1.67v-9c0-3.67,1.45-5.82,3.33-5.82s3.34,2.15,3.34,5.82v9Zm0-9.08c0-2.3-.7-3.48-1.66-3.48s-1.66,1.18-1.66,3.48v2.14h3.32Z"/><path class="cls-1" d="M196.11,203.77,192,194.23v9.54h-1.47v-14.6h1.08l4.07,9.54v-9.54h1.47v14.6Z"/><path class="cls-1" d="M199.31,203.77v-14.6h5.19v2.23H201v3.24h3.1v2.23H201v4.66h3.66v2.24Z"/><path class="cls-1" d="M211.89,203.77l-2.54-4.86H208v4.86h-1.68v-14.6h3.12c2.2,0,3.47,2.21,3.47,4.88a5.06,5.06,0,0,1-1.9,4.4l2.81,5.32Zm-2.57-12.45H208v5.44h1.29c1.07,0,1.9-.87,1.9-2.71S210.39,191.32,209.32,191.32Z"/><path d="M131.55,305.16c2.54.95,5.09-1.86,1.1-3.56a7.66,7.66,0,0,0-4.22.29A5,5,0,0,0,131.55,305.16Z"/><path d="M138.18,305.12a1,1,0,0,0,1.62-1.27c-.92-1.77-4-5-14-8.63,0,0-5.46-1.91.42,1.23s10.12,5.56,11.3,7.75A3.43,3.43,0,0,0,138.18,305.12Z"/><line x1="126.59" y1="301.14" x2="114.35" y2="295.66"/><path d="M126.18,302.05l-12-6.08a.35.35,0,0,1-.15-.46.35.35,0,0,1,.43-.16L127,300.23a1,1,0,0,1-.73,1.86Z"/><path d="M137.08,306.4a1,1,0,0,1,.2,2.05c-1.92.56-6.35.55-15.92-4.2,0,0-5.15-2.64,1.17-.55s11,3.49,13.41,2.84A3.33,3.33,0,0,1,137.08,306.4Z"/><line x1="129.23" y1="299.99" x2="117.87" y2="294.37"/><path d="M128.79,300.88l-11.07-6.21a.34.34,0,0,1-.13-.46.34.34,0,0,1,.43-.15l11.66,5a1,1,0,0,1-.8,1.84Z"/><line x1="127" y1="303.79" x2="115.15" y2="298.81"/><path d="M126.61,304.71,115,299.13a.34.34,0,0,1,.26-.63l12.11,4.37a1,1,0,1,1-.68,1.88Z"/><path d="M149.79,307.64l-4-3.78s-1.54-1.15-.34-2.2,2.21.32,2.57.81,3.09,3.53,3.5,4.17a1.17,1.17,0,0,1,0,1.61C151,308.63,149.79,307.64,149.79,307.64Z"/><path d="M144.2,306.37l-4-3.78s-1.54-1.15-.34-2.2,2.21.31,2.57.81,3.09,3.53,3.5,4.17a1.18,1.18,0,0,1,0,1.61C145.46,307.36,144.2,306.37,144.2,306.37Z"/><path d="M153.36,302.85a2.29,2.29,0,0,0-2,.14c-1,.63,0,1.69.49,2.21s1.07,1,1.07,1l1.62-1.25.26-.23A8.32,8.32,0,0,0,153.36,302.85Z"/><path d="M148.61,309.2l-5.36,1.34s-1.9.25-1.36,1.76,2.08.8,2.63.54,4.42-1.58,5.09-1.94.95-.88.76-1.42S148.61,309.2,148.61,309.2Z"/><path d="M143.11,307.6l-5.35,1.33s-1.9.26-1.37,1.76,2.08.8,2.64.55,4.42-1.59,5.08-1.94.95-.89.77-1.42S143.11,307.6,143.11,307.6Z"/><path d="M168.89,311A.75.75,0,0,0,170,311l1.13-1.29a.76.76,0,0,0,0-1l-2.27-2.17c-.57,1.08-1.12,2-1.63,2.89Z"/><path d="M173.38,309.55l1.22,1.17a.74.74,0,0,0,1.08,0l1.51-1.72-1-1.95s-.2-.47-.54-1.09l-2.28,2.6A.75.75,0,0,0,173.38,309.55Z"/><path d="M174.71,313.21l-1.13,1.29a.75.75,0,0,0,0,1l.9.86a.75.75,0,0,0,1.08-.05l1.13-1.29a.76.76,0,0,0-.05-1l-.9-.85A.74.74,0,0,0,174.71,313.21Z"/><path d="M167.38,313.91l1-1.13a.75.75,0,0,0-.05-1l-1.66-1.59c-.62,1-1.15,1.87-1.57,2.64L166.3,314A.75.75,0,0,0,167.38,313.91Z"/><path d="M176.36,312.41l.9.85a.74.74,0,0,0,1.08-.05l.68-.78-.08-.16-1.28-2.43-1.35,1.53A.76.76,0,0,0,176.36,312.41Z"/><path d="M178.45,315.7a.74.74,0,0,0-1.08,0l-1.13,1.3a.75.75,0,0,0,0,1l2.13,2c.42-.71.66-1.18.66-1.18a8.62,8.62,0,0,0,.83-1.84Z"/><path d="M165.73,314.71l-1.08-1a4.1,4.1,0,0,0-.23,3.63l1.36-1.56A.75.75,0,0,0,165.73,314.71Z"/><path d="M173.13,321.78a.75.75,0,0,0-1.08.05l-1.6,1.83a.8.8,0,0,0,.05,1.07c1.87,1.95,2.65,1.86,4.34.16.25-.25.49-.51.73-.78Z"/><path d="M171.37,320.1l-.89-.86a.75.75,0,0,0-1.08.05l-1.88,2.15c.88,1,1.46,1.68,1.82,2.07l2.08-2.38A.75.75,0,0,0,171.37,320.1Z"/><path d="M171.73,310.35l-1.13,1.3a.75.75,0,0,0,.05,1l1.22,1.17a.75.75,0,0,0,1.08-.05l1.13-1.29a.75.75,0,0,0-.05-1l-1.22-1.17A.74.74,0,0,0,171.73,310.35Z"/><path d="M179,313.91a.76.76,0,0,0,.05,1l1.07,1a6.22,6.22,0,0,0-.63-2.62Z"/><path d="M168.76,318.59a.74.74,0,0,0,0-1l-1.23-1.17a.75.75,0,0,0-1.08.05l-1.52,1.74c.19.28.4.58.65.89.51.62,1,1.16,1.37,1.64Z"/><path d="M171.62,307.87a.74.74,0,0,0,1.08-.05l2.39-2.74c-1.23-1.81-3.43-3.67-5.84.52Z"/><path d="M176.17,323.39a28.94,28.94,0,0,0,1.75-2.47l-2.2-2.1a.75.75,0,0,0-1.08.05l-1,1.13a.75.75,0,0,0,0,1Z"/><path d="M169.28,316.81a.75.75,0,0,0,1.08-.05l1-1.13a.75.75,0,0,0,0-1l-1.22-1.17a.74.74,0,0,0-1.08.05l-1,1.13a.75.75,0,0,0,.05,1Z"/><path d="M173,319.3l1-1.13a.75.75,0,0,0,0-1l-.9-.86a.75.75,0,0,0-1.08.05l-1,1.13a.74.74,0,0,0,0,1l.9.86A.75.75,0,0,0,173,319.3Z"/><path d="M181.54,307.21l6.8,4.15c-.34,1.87,1,5.73,2.41,8-.85-.08-1.78-.14-2.72-.19-.51-.68-1.31-1.69-2.56-3.14C182.53,312.64,181.54,307.21,181.54,307.21Z"/><path d="M181.68,306.05a42.73,42.73,0,0,0-5.38-2.24,5.11,5.11,0,0,0-1.9-.16A1.67,1.67,0,0,1,175,303a14.49,14.49,0,0,1,11.76,1.4,13.58,13.58,0,0,1,1.81,1.25A33.56,33.56,0,0,0,181.68,306.05Z"/><path d="M190.14,311.62a9.64,9.64,0,0,1,3.86,1,35.81,35.81,0,0,1,3,7h0C195,315.79,190.14,311.62,190.14,311.62Z"/><path d="M183.65,306.87l.4-.05a16.05,16.05,0,0,1,5.83.05,25.8,25.8,0,0,1,3.4,4.48,32.58,32.58,0,0,0-4.35-1Z"/><path d="M191.42,318.23a12.82,12.82,0,0,1-2.23-6.22c5.22,4.19,7,7.95,7,7.95l.19.68a11.25,11.25,0,0,1-1.86-.63,11,11,0,0,0-2.15-.44C192.08,319.18,191.78,318.73,191.42,318.23Z"/><path d="M182.42,317.46l-.86-.89c-.09.16-.13.53-.21.68-.22.39-.63.93-1.14,1.67a.43.43,0,0,0,.51.51,17.81,17.81,0,0,1,3.45-.3C183.66,318.69,183.06,318.12,182.42,317.46Z"/><path d="M182.32,312.44a24.39,24.39,0,0,1-1.7-5.39,1,1,0,0,0-.58-.72c-.42-.19-1.08-.48-1.82-.77A1,1,0,0,0,177,307l0,0c1.71,3,4.12,7.44,4.54,8.21a1,1,0,0,0,.15.21l1.35,1.41c.68.7,1.26,1.36,1.7,1.9a1,1,0,0,0,.77.37l1.23,0A32.25,32.25,0,0,1,182.32,312.44Z"/><path d="M162.87,306.93,156,310.87c.28,1.89-1.14,5.7-2.65,8,.85-.06,1.78-.09,2.72-.11.53-.67,1.36-1.65,2.66-3.07C161.71,312.33,162.87,306.93,162.87,306.93Z"/><path d="M162.76,305.77a43.29,43.29,0,0,1,5.45-2.08,5,5,0,0,1,1.9-.1,1.66,1.66,0,0,0-.52-.7,14.51,14.51,0,0,0-11.8,1.05,13.41,13.41,0,0,0-1.84,1.19A33.36,33.36,0,0,1,162.76,305.77Z"/><path d="M154.14,311.07a9.78,9.78,0,0,0-3.89.87,35.64,35.64,0,0,0-3.2,6.91h0C149.17,315.1,154.14,311.07,154.14,311.07Z"/><path d="M160.77,306.52l-.39,0a15.73,15.73,0,0,0-5.83-.13,25.16,25.16,0,0,0-3.54,4.38,31.14,31.14,0,0,1,4.39-.91Z"/><path d="M152.66,317.64a12.81,12.81,0,0,0,2.42-6.14c-5.34,4-7.21,7.74-7.21,7.74-.07.24-.14.45-.21.66a10.38,10.38,0,0,0,1.88-.57,10.77,10.77,0,0,1,2.16-.37C152,318.57,152.29,318.14,152.66,317.64Z"/><path d="M161.68,317.15l.89-.87c.09.16.11.54.19.69a17.21,17.21,0,0,0,1,1.75c0,.17-.26.49-.42.45a17.69,17.69,0,0,0-3.44-.41C160.41,318.34,161,317.78,161.68,317.15Z"/><path d="M161.93,312.13a24.62,24.62,0,0,0,1.87-5.33,1,1,0,0,1,.6-.71c.43-.18,1.09-.44,1.84-.71a1,1,0,0,1,1.2,1.48l0,0c-1.81,3-4.35,7.31-4.79,8.06a1,1,0,0,1-.15.21c-.26.25-1,1-1.4,1.37-.7.68-1.3,1.32-1.75,1.84a1,1,0,0,1-.78.35h-1.24A31.59,31.59,0,0,0,161.93,312.13Z"/><path d="M212.53,304.1c-2.53,1-5.1-1.8-1.14-3.55a7.65,7.65,0,0,1,4.23.25A4.94,4.94,0,0,1,212.53,304.1Z"/><path d="M205.9,304.13a1,1,0,0,1-1.63-1.25c.9-1.78,3.93-5,13.93-8.78,0,0,5.44-2-.4,1.23s-10.06,5.67-11.22,7.88A3.43,3.43,0,0,1,205.9,304.13Z"/><line x1="217.45" y1="300.03" x2="229.63" y2="294.42"/><path d="M217,299.12l12.46-5a.33.33,0,0,1,.44.19.33.33,0,0,1-.16.42l-11.9,6.22a1,1,0,0,1-1.35-.43,1,1,0,0,1,.42-1.35Z"/><path d="M207,305.4a1.05,1.05,0,0,0-.18,2.06c1.92.53,6.35.47,15.87-4.38,0,0,5.13-2.69-1.18-.53s-11,3.61-13.38,3A3.49,3.49,0,0,0,207,305.4Z"/><line x1="214.8" y1="298.9" x2="226.09" y2="293.16"/><path d="M214.34,298l11.6-5.15a.34.34,0,0,1,.3.6l-11,6.33a1,1,0,1,1-1-1.73Z"/><line x1="217.07" y1="302.68" x2="228.86" y2="297.58"/><path d="M216.67,301.76l12.06-4.49a.33.33,0,0,1,.43.2.33.33,0,0,1-.16.42l-11.53,5.71a1,1,0,1,1-.89-1.8Z"/><path d="M194.33,306.78l4-3.82s1.53-1.17.31-2.21-2.2.34-2.56.84-3,3.57-3.45,4.2a1.2,1.2,0,0,0,0,1.62C193.08,307.78,194.33,306.78,194.33,306.78Z"/><path d="M199.89,305.44l4-3.81s1.52-1.17.31-2.21-2.2.34-2.56.84-3,3.57-3.45,4.2a1.19,1.19,0,0,0,0,1.62C198.65,306.45,199.89,305.44,199.89,305.44Z"/><path d="M190.7,302a2.25,2.25,0,0,1,2,.12c1,.62,0,1.69-.47,2.21s-1,1.05-1,1.05l-1.64-1.23-.26-.23A8.58,8.58,0,0,1,190.7,302Z"/><path d="M195.52,308.33l5.37,1.28s1.9.23,1.38,1.74-2.07.82-2.63.58-4.43-1.54-5.1-1.89-1-.87-.78-1.41S195.52,308.33,195.52,308.33Z"/><path d="M201,306.66l5.37,1.28s1.9.24,1.38,1.74-2.07.83-2.63.58-4.44-1.54-5.11-1.89-.95-.87-.77-1.41S201,306.66,201,306.66Z"/><path d="M177.7,178.27s4,4.93,7.29,2.88-.21-4.29-1.15-3.59a1.91,1.91,0,0,0-.79,1.71,6.71,6.71,0,0,1-3.53-2.3c-1.88-2.05-4.29-3.17-6.35-1.06a4.21,4.21,0,0,0,1.35,6.59c2.23.82,3.41-2.82-.18-2.88C174.34,179.62,174,175.33,177.7,178.27Z"/><path d="M165.81,178.5s-4,4.94-7.29,2.88.21-4.29,1.15-3.58a1.89,1.89,0,0,1,.79,1.7,6.64,6.64,0,0,0,3.53-2.29c1.88-2.06,4.29-3.18,6.35-1.06a4.2,4.2,0,0,1-1.35,6.58c-2.24.83-3.41-2.82.17-2.88C169.16,179.85,169.49,175.57,165.81,178.5Z"/><rect x="130.96" y="178.7" width="23.99" height="2.51" rx="0.94"/><rect x="189.16" y="178.7" width="23.99" height="2.51" rx="0.94"/><path d="M55.26,252l16.51,12.21s7.93,5.8-5.87,3.41-16.73-3.07-16.72-10.3S49.47,246.93,55.26,252Z"/><path d="M78.74,224.53s8.56,8.63,6.82,4.11c-2-5.22-1.47-5.91,1.32-10.43,2.16-3.51,6.92-7.94,3.39-10.61-5.6-4.24-11.92-11.82-22.65-7.34S54.39,218.1,54.39,218.1s0,1.8,3-.49c2.36-1.79,4-4.07,8.64-1.73a33,33,0,0,1,4.77,2.75C76,222.5,77.41,223.21,78.74,224.53Z"/><path d="M96.45,69.78a.19.19,0,0,1-.1-.36c2.94-1.29,10.34-4.73,11.61-7.27,1.59-3.18.4-4.77-1.72-5.69s-.53-3.71,4.9-4.51,4,7.82,2.51,8.81c0,0,5.56-2.58,9.54,1.12s7.54,3.45,7.15,1.59a3.66,3.66,0,0,0-2.65-2.74c-.53,0,2.38-2.16,5.82.62s1.86,8.08-4.63,8.88-9.27-4.64-10.06-5.43a7.87,7.87,0,0,0-6-1.46,9.57,9.57,0,0,0-4.37,1.85s4,.67,4,3.71a8.43,8.43,0,0,1-2.91,6.62c-1.59,1.33,0-3.84-1.19-4.76S102.07,69.23,96.45,69.78Z"/><path d="M116.06,155.71c-.82-5-5.26-2.12-6.9-3.49s1.92-1.84,3.62-1.22,2.67,1.43,1.57-1.44-4-2.87-6.76-2.66-10.58,6-10.58,6l-13.94,1.71s0-1.92,3.21-5.33,4.85-8.68,3.21-17.21-3.19-6-5.87-3.05a105.11,105.11,0,0,1-12.16,11.11c-.95.55.49,1.8.49,1.8,1.91,2.32,2.58,10.56,1,17.25s1.36,6.69,4.3,4.58,19.74-4.58,19.74-4.58c-1,4.37,1.77,7.51,4,8s4-1,1.7-1.71-2.18-3-1.43-4.57,2.53-2.32,3.14-.82.27,1,3.76,1.84,3.48,2.8,3.48,2.8c-.61,4.85.48,4,2.8,1.23s.34-5.73-1.91-6.83-3.48-2.11-2.6-2.66a4.32,4.32,0,0,1,4,.68C114.49,157.89,116.88,160.69,116.06,155.71Z"/><path d="M102.28,96.19c-2.51,0-2.45-.69-1.75-.8a12.33,12.33,0,0,1,3.37.55c2.1.51,1.37-1.31-1.87-3.47s-8,4.76-9.69,5.4-7.45,2.51-10.82,2.54.32-6.74-5.59-6.54C72.78,94,72,92,76.49,92.2c4.62.17,4.54,6.92,5.88,6.92s8.35-1,8.35-1.8S86.47,92,82.34,89.61,70.5,80.08,67.67,73.86s3.84-9.14,3.84-9.14c-.47,4.54,4.26,1.52,6.64,1.84s4.41,2.6,5.49,4.38,3.91,7.65,8.38,3.49-.82-4-1.17-3.59-2.45.92-2.48-.44-1.9-1.81-1.9-1.81c-2.07-2.7,1-1.43,1-1.43,4.64.64,4.7-1.24,1.62-1.68s-3.17-3.72-3.17-3.72,4-2.13,4.57-.12,1.75,1,2.41,1,.22,1.14.22,1.14c1.85,5,3.05.84,3.05.84s1.85-7.41-2.92-8.95A24.11,24.11,0,0,0,83.39,55s-.21,0-.06-.66c.64-2.66-4.9-3.31-7.28-2.44s-14,0-14,0l4.9,3.76C60.73,60,53.5,63.78,54,75.11s6.35,15,7.24,17.63a28,28,0,0,1,1.16,5.46l.15,1.23a9.64,9.64,0,0,1-8.42-2.53c-5-4.37-6.55-9-6.08-13.52a30.35,30.35,0,0,1,.76-5.26l-6-5.67L13,39.77a.73.73,0,0,0-1.27.43L12,54.55a1.47,1.47,0,0,0,.52,1.25L41.08,79.69c0,.29-.06.59-.08.89-6.41-4.55-22.33-16-28-20.8-7.17-6.11-3.28,4.61-2.26,6.8s2.73,7,12.91,12A71.19,71.19,0,0,0,41,84.42c0,.4.06.79.1,1.19a45,45,0,0,1-16.25-4.49C17,77,9.38,70.13,12,76.55S18.46,87.41,23.1,88.3a102.39,102.39,0,0,0,18.81,1.37c.17.56.36,1.13.58,1.69-2.51.36-11,1.38-16.58-.19-6.63-1.85-11.48-4.22-8.2,0s7.44,8.4,11.27,8c3.26-.35,13-2.15,15.74-3.47.26.39.53.77.82,1.15-2.74,1-8.53,3.15-11.64,3.41-4.17.34-12.16.14-5.81,3.28s10.59,2.18,15,0a36.54,36.54,0,0,1,6.48-2.47c.28.23.57.47.87.7a83.55,83.55,0,0,1-14,6.23c-2.93.8,2.3,3.6,4.5,3.66s4.52.62,7.8-2.32c2.06-1.85,4.37-3.78,5.79-5,.32.18.63.36,1,.53-1.76,1.89-4.81,5-5.64,5.72-1.26,1-5.22,3.14-.64,3.69s6.62-1,7.3-2.58c.4-.91,1.85-3.25,3-5.08l1.26.42s-2.57,4.64-3.32,5.87-.53,2.1,1.95,1,2.59-1.68,2.67-2.21a51.17,51.17,0,0,1-1.74,7.54c-.35,1.22-4.89,9.9-8.1,12.18s-10.64,2.7-6.07-1.55,3.12-10.26,3.12-10.26c-2.07-7.75-10.23-6.19-12.58-3.18s-5.65,4.42-6.44,4.1-2-2.44-2-2.44c3.24-1.91.86-3,.86-3C24,112.31,20.64,113,20.64,113c1.27,12.64,3.27,9.14,4.32,8.19s.48-1.74,3.53,2.54,5.46,1.56,9.3-1.68,3.91.86,2.1,2.41-5.88,8.29-4.64,15.72,10,7.78,12.54,6.76,2.23,1.34,2.23,1.5.12,3.11-4,3.71-1.43,3.05-.6,3.81a3.37,3.37,0,0,1,.73,2.35l-.25,12.42c-1.66-.38-2.73,2.16-3,3s-2.32,5.78,2.25,7.43,1.72-1.71,1.4-2-1.05-1.15.22-3.27,2.51.54,2.86,1.77,1.94,1.78,2,1.94,2.7,3.21.92,4.64-1.49,4.12,1.62,2,1.75-4.72.83-7.07-.32-2.42.15-2.45,2,1.91,2.07,3.37,1.17,4.63,2.57,1.74,1.46-3.93-.19-5.49S57.57,173.85,58,173s1.55,1.11,2.7,2.83,3,.79,2.7-2.73-6.39-3.78-9.15-3.62-2.57-.22-2.06-5.05,2.31-7.11,3.3-7.65a56.94,56.94,0,0,0,10.32-7.37c5-4.48.6-14.42-.48-16.83s.49-3.38,1.15-1.46c3.06,9.06,1.84,9.37,6.16,6.1s12.41-11.09,16-18c2.85-5.5,1.71-13.68,2-14.41s1.34-1.12,2.09-1.36c.52-.16,2.58-1.12,2.16.18a3.12,3.12,0,0,0,.1,2.26c2.12,2.94,2.51,1.24,2.29-.38s.57-2.07,1.3-2.7a2.78,2.78,0,0,1,3.72.42c2,2.17,3,2.15,2.52-.11s-1.32-2.6-3.61-3-1.06-.93.45-1.2c2.16-.37,3.84,2.84,4.12,1.44A3.45,3.45,0,0,0,102.28,96.19ZM75.5,55.62c1.7,0,3.09.54,3.09,1.19S77.2,58,75.5,58s-3.1-.53-3.1-1.19S73.79,55.62,75.5,55.62Z"/><path d="M272.74,263.55s19.1-12.68,19.9-13.28,4.77-2.34,4.84.74-.17,7.53-2.8,10.37c-3,3.23-7.44,3.75-11.58,4.06a95.93,95.93,0,0,1-10,0C272.67,265.44,270.77,265.06,272.74,263.55Z"/><path d="M266.51,197.93c4.5-1.75,11.92-2.4,18.4,7.22a37.93,37.93,0,0,1,5.32,11c.29,1.15-.92,2-1.69,1.09-.59-.69-1.14-1.29-1.57-1.71-2.37-2.28-4.14-2.79-8.24-.34s-18.79,13-18.79,13a29,29,0,0,0,1.52-6.23c.05-.42-5.09-5.58-9.14-12.62C252.32,209.34,260.83,200.13,266.51,197.93Z"/><path d="M251.89,198.48c-.11,5.06.64,6.19,1.77,5.44l5.53-4.51c.36-.29.72-.56,1.1-.81l4.88-3.27a1.65,1.65,0,0,0-.17-3.08l-12.24-4.65c-1.27-.48-2.37-.27-1.84,1.83A54.87,54.87,0,0,1,251.89,198.48Z"/><path d="M315.44,175l-11-.49H304a6.06,6.06,0,0,1-1.31,5.81c-1.83,2.09-4.53,2.93-5.73,2.69s-1.41-1.43-1.34-2.29-.55-1-1.55.66.18,3.3.4,4c.42,1.23.31,4.1-2.91,2.8s-4.24-3.38-4.16-3.7-.94.82-2.57-.88a6.51,6.51,0,0,1-2-3.91,7.41,7.41,0,0,1,0-1.68c.11-.54-1.8.06-2.42-2.39a5.77,5.77,0,0,1-.18-1.05c-2.93.08-18.41.67-24.77,4.77-7,4.53-.5,7.55,3.07,8.43s9.31,2.62,10.41,6.12c.24.77,3.37,0,9,1.88,5,1.66,9.5,9.52,17.47,14.09,7.78,4.46,19.51-3.32,19.51-3.32l-10.44-14.16Z"/><path d="M93.8,189.89c.53-2.11-.58-2.31-1.84-1.83l-12.24,4.65a1.66,1.66,0,0,0-.18,3.08l4.89,3.26c.37.26.74.53,1.09.82l5.54,4.51c1.12.75,1.88-.38,1.77-5.44A53.73,53.73,0,0,1,93.8,189.89Z"/><path d="M29.28,175.5l11-.49h.41A6.08,6.08,0,0,0,42,180.82c1.83,2.09,4.53,2.93,5.73,2.69s1.41-1.43,1.34-2.29.55-1,1.55.66-.18,3.3-.4,4c-.43,1.23-.31,4.1,2.91,2.8s4.24-3.39,4.16-3.7.94.82,2.56-.88a6.48,6.48,0,0,0,2-3.91,8.08,8.08,0,0,0,0-1.68c-.12-.54,1.8.06,2.42-2.4a8.1,8.1,0,0,0,.18-1c2.92.08,18.41.67,24.77,4.77,7,4.53.5,7.55-3.07,8.43s-9.47,1.65-10.8,7.3c-.19.79-3,.06-8.63,1.94-5,1.66-9.46,8.84-17.49,12.85S29.76,207,29.76,207l10.45-14.17Z"/><path d="M248.19,69.52a.19.19,0,0,0,.1-.36c-2.93-1.29-10.34-4.73-11.61-7.27-1.58-3.18-.39-4.77,1.73-5.69s.53-3.71-4.9-4.5-4,7.81-2.52,8.8c0,0-5.56-2.58-9.53,1.13s-7.55,3.44-7.15,1.59A3.68,3.68,0,0,1,217,60.47c.53,0-2.39-2.15-5.83.63s-1.85,8.07,4.63,8.87,9.27-4.64,10.07-5.43a7.9,7.9,0,0,1,6-1.46,9.58,9.58,0,0,1,4.37,1.86s-4,.66-4,3.7a8.44,8.44,0,0,0,2.92,6.62c1.58,1.33,0-3.84,1.19-4.76S242.58,69,248.19,69.52Z"/><path d="M228.58,155.45c.82-5,5.26-2.12,6.9-3.48s-1.91-1.85-3.62-1.23-2.66,1.43-1.57-1.44,4-2.87,6.76-2.66,10.59,6,10.59,6l13.93,1.71s0-1.92-3.21-5.33-4.85-8.67-3.21-17.21,3.19-6,5.88-3a104.54,104.54,0,0,0,12.15,11.11c.95.55-.49,1.8-.49,1.8-1.91,2.32-2.58,10.56-.94,17.25s-1.37,6.7-4.3,4.58-19.74-4.58-19.74-4.58c1,4.37-1.78,7.52-4,8s-4-1-1.71-1.7,2.19-3,1.43-4.58-2.52-2.32-3.14-.82-.27,1-3.75,1.84-3.49,2.81-3.49,2.81c.62,4.84-.48,4-2.8,1.22s-.34-5.73,1.91-6.83,3.49-2.11,2.6-2.66a4.3,4.3,0,0,0-4,.68C230.15,157.64,227.76,160.44,228.58,155.45Z"/><path d="M238.84,100c.29,1.4,2-1.81,4.13-1.43,1.5.26,2.73.74.44,1.19s-3.1.79-3.61,3,.51,2.28,2.52.1a2.79,2.79,0,0,1,3.73-.42c.73.63,1.52,1.08,1.3,2.7s.16,3.32,2.28.38a3.11,3.11,0,0,0,.1-2.26c-.41-1.3,1.64-.34,2.17-.17.74.23,1.8.62,2.08,1.35s-.85,8.91,2,14.41c3.58,6.92,11.68,14.74,16,18s3.09,3,6.16-6.1c.65-1.92,2.22-.95,1.14,1.46s-5.52,12.35-.47,16.83a56.66,56.66,0,0,0,10.31,7.37c1,.54,2.8,2.82,3.31,7.65s.7,5.21-2.07,5.05-8.86.09-9.14,3.62,1.55,4.44,2.7,2.73,2.25-3.68,2.7-2.83.16,1.85-1.5,3.4-1.58,2.61-.19,5.49,2.48-.28,2.58-1.74,1.58-3.4,2.06-3.37,1.08.1.16,2.45-2.29,4.93.82,7.07,3.4-.56,1.62-2,.86-4.48.92-4.64,1.66-.7,2-1.93,1.59-3.91,2.86-1.78.54,3,.22,3.27-3.17,3.62,1.4,2,2.57-6.54,2.26-7.43-1.4-3.43-3-3.05L298.53,158a3.43,3.43,0,0,1,.73-2.35c.83-.76,3.56-3.2-.6-3.81s-4-3.55-4-3.71-.29-2.51,2.22-1.5,11.3.67,12.54-6.76-2.82-14.16-4.63-15.72-1.75-5.65,2.09-2.41,6.26,6,9.31,1.68,2.47-3.49,3.52-2.54,3.05,4.45,4.32-8.19c0,0-3.3-.67-8.48,2.19,0,0-2.38,1.08.86,3,0,0-1.21,2.12-2,2.44s-4.1-1.08-6.45-4.09-10.51-4.58-12.57,3.17c0,0-1.46,6,3.11,10.26s-2.86,3.84-6.06,1.55-7.75-11-8.1-12.18a49.91,49.91,0,0,1-1.75-7.54c.08.53.24,1.16,2.67,2.21s2.71.2,1.95-1-3.32-5.87-3.32-5.87l1.26-.42a56.83,56.83,0,0,1,3,5.08c.68,1.59,2.73,3.13,7.31,2.58s.61-2.66-.64-3.69c-.83-.67-3.89-3.83-5.64-5.72.33-.17.64-.35,1-.53,1.43,1.18,3.73,3.1,5.8,4.95,3.27,2.94,5.6,2.39,7.8,2.33s7.43-2.87,4.49-3.67a83.54,83.54,0,0,1-14-6.23c.3-.23.58-.46.86-.7a37.7,37.7,0,0,1,6.49,2.47c4.44,2.18,8.67,3.14,15,0s-1.64-2.94-5.8-3.28c-3.11-.25-8.91-2.36-11.65-3.41.29-.38.57-.76.82-1.15,2.77,1.32,12.48,3.12,15.75,3.47,3.82.41,8-3.76,11.26-8s-1.57-1.86-8.19,0c-5.6,1.56-14.08.54-16.59.19.22-.57.42-1.13.58-1.7A102.25,102.25,0,0,0,321.54,88c4.64-.89,8.54-5.33,11.13-11.75s-5,.41-12.87,4.58a45.09,45.09,0,0,1-16.25,4.48c.05-.4.08-.79.11-1.18A71.4,71.4,0,0,0,321,78.34c10.18-5.06,11.89-9.84,12.91-12s4.92-12.91-2.25-6.8c-5.68,4.84-21.6,16.25-28,20.8,0-.3,0-.6-.08-.89l28.53-23.89a1.49,1.49,0,0,0,.52-1.25l.27-14.35a.74.74,0,0,0-1.28-.43L301.87,72.19l-6,5.67a31.83,31.83,0,0,1,.75,5.26c.48,4.58-1.09,9.15-6.08,13.52a9.62,9.62,0,0,1-8.41,2.53q.06-.61.15-1.23a27.16,27.16,0,0,1,1.16-5.46c.89-2.6,6.76-6.29,7.24-17.62s-6.75-15.14-12.94-19.46l4.9-3.76s-11.65.88-14,0-7.92-.21-7.28,2.44c.15.63-.05.66-.05.66a24.06,24.06,0,0,0-9.88.72c-4.76,1.53-2.91,8.95-2.91,8.95s1.19,4.13,3-.85c0,0-.45-1.07.22-1.14s1.87,1,2.41-1,4.58.12,4.58.12-.1,3.27-3.18,3.72-3,2.32,1.62,1.68c0,0,3.08-1.27,1,1.43,0,0-1.88.45-1.91,1.81s-2.13.83-2.48.45-5.65-.58-1.17,3.58,7.3-1.71,8.38-3.49,3.11-4.06,5.5-4.38,7.11,2.7,6.63-1.84c0,0,6.67,2.92,3.84,9.14S266.43,87,262.3,89.35s-8.38,6.92-8.38,7.71,7,1.8,8.36,1.8,1.26-6.74,5.87-6.92,3.71,1.78.56,1.67c-5.9-.2-2.22,6.58-5.59,6.55s-9.1-1.92-10.82-2.55-6.44-7.56-9.68-5.4-4,4-1.88,3.47a12.86,12.86,0,0,1,3.37-.55c.7.11.76.77-1.75.8A3.45,3.45,0,0,0,238.84,100Zm33.4-43.49c0,.66-1.38,1.19-3.09,1.19s-3.09-.53-3.09-1.19,1.38-1.18,3.09-1.18S272.24,55.9,272.24,56.55Z"/><path d="M131.38,110h6v48.07h7.24V169.4H131.38Z"/><path d="M149.56,145.63,142.18,110h6.52l3.89,20.39L156.45,110H163l-7.38,35.61V169.4h-6Z"/><path d="M162.86,162l2-10.33c2.06,4,4,5.88,5.82,5.88,1.23,0,2-1.51,2-4.45,0-3.38-2.16-5.17-4.32-8-2.39-3.12-4.95-8.19-4.95-18.34S166.59,109,170.81,109c2.53,0,5.22,3.21,7.18,8.73l-2,9.88c-2.2-4.45-3.69-5.79-5.09-5.79-1,0-1.83,1.52-1.83,4.19s1.33,4.45,2.83,6.32c2.69,3.38,6.48,7.39,6.48,19.49,0,11.49-3.46,18.52-7.38,18.52C167.85,170.38,164.86,167.26,162.86,162Z"/><path d="M180.75,139.76c0-17.72,4.19-30.72,9.84-30.72s9.87,13,9.87,30.72-4.22,30.62-9.87,30.62S180.75,157.47,180.75,139.76Zm13.63,0c0-12-1.79-17.72-3.79-17.72s-3.76,5.7-3.76,17.72,1.77,17.71,3.76,17.71S194.38,151.77,194.38,139.76Z"/><path d="M203.82,110h6v48.07h7.25V169.4H203.82Z"/><rect x="129.85" y="133.24" width="9.01" height="9.01" transform="translate(-58.05 135.35) rotate(-45)"/><rect x="202.74" y="134.65" width="9.01" height="9.01" transform="translate(-37.7 187.3) rotate(-45)"/><path d="M96.4,109.46a7.78,7.78,0,0,1-2.28-1.62A3.72,3.72,0,0,1,93,105.51a1.58,1.58,0,0,0-.14-.54c-2.16,7.79-.1,18.7,6,30.39a66.38,66.38,0,0,0,5.34,8.55h5a59,59,0,0,1-6.72-10.15C97.94,125.07,95.91,116.25,96.4,109.46Z"/><path d="M105.5,130.77c-5.22-10.13-6-20.22-3.44-26.22-.74-.62-1.18-.84-1.71-.72-2.61,6.5-1.27,17.52,4.27,28.3a52.81,52.81,0,0,0,8.14,11.78h2.51A47.47,47.47,0,0,1,105.5,130.77Z"/><path d="M153.14,90.68c-11.09-5.86-16.09-7.1-24.88-7.1a28.92,28.92,0,0,0-21.93,10.09,1.58,1.58,0,0,1,0,2.1s0-.07.29.27C111.54,89.68,119.24,85,128,85c8.18,0,13.51,1.31,23.84,6.74a61.12,61.12,0,0,1,11.59,8.39h2.79A57.63,57.63,0,0,0,153.14,90.68Z"/><path d="M248,109.46a7.9,7.9,0,0,0,2.27-1.62,3.72,3.72,0,0,0,1.13-2.33,1.58,1.58,0,0,1,.14-.54c2.16,7.79.1,18.7-6,30.39a66.42,66.42,0,0,1-5.35,8.55h-5a57.85,57.85,0,0,0,6.72-10.15C246.48,125.07,248.52,116.25,248,109.46Z"/><path d="M217.11,77.85c-10.58,0-16.64,1.75-30,8.64a71.78,71.78,0,0,0-14.91,10.17A71.78,71.78,0,0,0,157.3,86.49c-13.35-6.89-19.41-8.64-30-8.64A35.5,35.5,0,0,0,101,89.4a1.93,1.93,0,0,1,.49.09,8.35,8.35,0,0,1,3.29,2.2,32.18,32.18,0,0,1,23.56-10.1c9.6,0,15.1,1.58,27.21,7.84a63.07,63.07,0,0,1,15.17,10.74l1.54,1.65,1.54-1.65a63.47,63.47,0,0,1,15.17-10.74c12.11-6.26,17.61-7.84,27.21-7.84a32.18,32.18,0,0,1,23.56,10.1,8.37,8.37,0,0,1,3.3-2.2,1.86,1.86,0,0,1,.48-.09A35.48,35.48,0,0,0,217.11,77.85Z"/><path d="M238.92,130.77c5.22-10.13,6-20.22,3.44-26.22.74-.62,1.18-.84,1.71-.72,2.61,6.5,1.27,17.52-4.27,28.3a53.12,53.12,0,0,1-8.13,11.78h-2.52A47.47,47.47,0,0,0,238.92,130.77Z"/><path d="M191.29,90.68c11.09-5.86,16.09-7.1,24.87-7.1a28.9,28.9,0,0,1,21.93,10.09,1.58,1.58,0,0,0,0,2.1s-.05-.07-.29.27C232.88,89.68,225.19,85,216.4,85c-8.18,0-13.51,1.31-23.84,6.74A61,61,0,0,0,181,100.12h-2.8A57.48,57.48,0,0,1,191.29,90.68Z"/><path d="M287.86,223.28c-5-10.53-17,1.34-28,9-1.72,1.21-3.91,2.62-6.46,4.19a45.88,45.88,0,0,0,4.95-13.17c.07-.41-4.93-6.29-9.51-15.25-4.26-8.31-7.84-16.73-11.08-24.3a53.81,53.81,0,0,1-3.48-13.12l-3.79-2c.22,4.54,1.91,12.16,5.6,21.33s5.08,11.71,8,18.94c5.83,14.37,2.29,27.28-6.24,36.43l-3.65,1.94A36.93,36.93,0,0,0,243,234.13c2.41-5.57,2.44-16.37-2-28q-.7-1.84-1.5-3.57h0l0,0c-.58-1.28-1.18-2.51-1.81-3.68-5.56-12.47-9.33-31.09-9.33-31.09l-2.23-1.8a92.67,92.67,0,0,0,4.47,19.94,155,155,0,0,1,6,20.17s.93,7.64.52,11.69a45.11,45.11,0,0,1-5.89,19.08c-4.16,6.56-8.23,10.89-16.88,15.74-10.72,6-25.16,8.26-41.28,7.7-17.38-.6-32-3.35-43.33-9-13-7.45-22.34-22.55-20.43-41.4a33.27,33.27,0,0,1,1.17-6c.94-4,5.26-16.12,6.69-20.26a59.19,59.19,0,0,0,2.38-19.15l-2.36,3s-1.48,15.57-7.37,27.84c-1.63,3.59-3.2,6.89-4.71,10.83-4.46,11.66-4.43,22.46-2,28,1.76,4.07,3.36,8,10.54,15l0,0c-1.84-.88-3-1.5-3-1.5l-1.38-.72c-9.63-9.21-14-22.78-7.78-38,2.93-7.23,4.26-9.64,8-18.94s5.39-17,5.61-21.53l-3.8,2.21a53.81,53.81,0,0,1-3.48,13.12c-3.24,7.57-6.82,16-11.08,24.3-4.58,9-9.58,14.84-9.51,15.25A46.63,46.63,0,0,0,92.4,237c-7.17-4.68-12.75-8.91-18.25-12.61-9.38-6.32-13.21-6.13-17-1.53s-8.62,21.83-8.62,21.83c14,7.85,37.56,24.57,55.34,31.79,19.34,7.85,35.81,11.68,46.54,12.25l.92.06,12.56,11.62h6.4L158.1,289.2l3.56.17,11.78,10.91,9.71-10.48c1.09,0,2.15,0,3.2-.06l-9.92,10.71h6.4l10.17-11c19-1.13,29.95-4.95,45.07-11.41,17.33-7.41,32.94-15.71,45.39-25.66,4.44-3.56,12.25-8.62,12.25-8.62A122.25,122.25,0,0,0,287.86,223.28ZM72,239.18a.71.71,0,0,1-1,.22l-.1-.09a.66.66,0,0,1-.33-.89l.07-.11a.71.71,0,0,0-.08-1l-.15-.1a.78.78,0,0,0-1.1.08.57.57,0,0,0-.11.16c-.4.54-.41,1.13,0,2.43.55,1.66.51,2.51-.15,3.44-.86,1.23-2.11,1.42-3.54.45s-1.58-2.06-.74-3.17a.72.72,0,0,1,1-.14l.06,0a.69.69,0,0,1,.29.92.35.35,0,0,0,0,.08.76.76,0,0,0,0,1.08.71.71,0,0,0,.22.15.8.8,0,0,0,1.14,0,.9.9,0,0,0,.14-.2c.45-.62.44-1.21,0-2.51-.54-1.67-.46-2.54.17-3.38a2.26,2.26,0,0,1,3.14-.63,1.86,1.86,0,0,1,.28.21C72.52,237.08,72.66,238.26,72,239.18Zm8,4.38-.08-.06L79,243q-1.95,3-3.89,6.09c-.25.39-.66.45-1.13.16s-.64-.68-.39-1.1q2-3,4-6l-.9-.57a.62.62,0,0,1-.36-.8.6.6,0,0,1,.09-.15.66.66,0,0,1,.91-.21l.09.07c1.06.66,2.13,1.32,3.2,2a.61.61,0,0,1,.35.8.52.52,0,0,1-.06.13A.67.67,0,0,1,80,243.56Zm8.36,5.61-.28.5a1.71,1.71,0,0,1-1.83,1.07c.62.59.54,1.31,0,2.22-.23.41-.45.83-.68,1.25a1.28,1.28,0,0,0-.2.5,1.61,1.61,0,0,1-.12.33c-.15.28-.49.29-.94.05-.62-.32-.76-.74-.36-1.46l.85-1.53c.41-.74.29-1.12-.37-1.48l-.51-.28c-.55.95-1.09,1.9-1.63,2.85a.74.74,0,0,1-1,.29l-.1-.07c-.48-.31-.62-.66-.39-1,1.32-2.25,2.63-4.49,4-6.73a.72.72,0,0,1,1-.3l.11.07,1.39.77C88.73,247,89,247.9,88.35,249.17Zm8.19,2.65q-1,3.65-1.94,7.3a.62.62,0,0,1-.07.19.7.7,0,0,1-.92.38.2.2,0,0,1-.08,0,.79.79,0,0,1-.5-1h0c.11-.39.23-.78.34-1.17l-1.8-.86-.72,1a.75.75,0,0,1-1,.24.65.65,0,0,1-.42-.82.36.36,0,0,1,0-.09.9.9,0,0,1,.14-.2l4.66-6a1.21,1.21,0,0,1,1.57-.34A1.16,1.16,0,0,1,96.54,251.82Zm9.23,3.74a.67.67,0,0,1-.81.48.58.58,0,0,1-.18-.08l-1-.39q-1.44,3.3-2.83,6.61c-.18.42-.56.54-1.06.33a.65.65,0,0,1-.39-1c1-2.19,1.92-4.39,2.89-6.58l-1-.41c-.43-.18-.58-.5-.4-.88a.64.64,0,0,1,.83-.36l.1,0c1.12.48,2.24,1,3.37,1.41A.67.67,0,0,1,105.77,255.56Zm8.68,3.25a.19.19,0,0,0,0,.07q-1.32,3.69-2.63,7.39a.75.75,0,0,1-1,.41h0a.74.74,0,0,1-.58-.87.5.5,0,0,1,0-.13c.39-1.09.79-2.17,1.19-3.26l-1.64-.59c-.41,1.08-.82,2.16-1.22,3.25a.76.76,0,0,1-1,.39h0a.73.73,0,0,1-.59-.86.09.09,0,0,1,0,0q1.41-3.66,2.83-7.32a.75.75,0,0,1,1-.4h0a.72.72,0,0,1,.5.87.19.19,0,0,0,0,.07l-1.08,2.88,1.62.59c.36-1,.71-1.93,1.06-2.89a.74.74,0,0,1,1-.43l0,0A.73.73,0,0,1,114.45,258.81Zm8.69,4.34-.16.54c-.26.9-.75,1.38-1.51,1.43.71.44.77,1.16.48,2.15l-.4,1.36a1.6,1.6,0,0,0-.09.53,2,2,0,0,1,0,.35c-.09.3-.41.39-.89.25-.65-.19-.86-.57-.62-1.35.16-.56.33-1.12.5-1.67.25-.81.06-1.15-.64-1.36l-.54-.17c-.32,1-.65,2.08-1,3.12a.7.7,0,0,1-1,.44c-.5-.16-.77-.47-.63-.91.8-2.46,1.59-4.92,2.4-7.38a.7.7,0,0,1,.85-.51l.15.06,1.47.46C123.07,261,123.51,261.8,123.14,263.15Zm9.23,2a2.15,2.15,0,0,1-.09.44l-1.11,4.66a2.14,2.14,0,0,1-2.44,1.79,2.05,2.05,0,0,1-.5-.14c-1.57-.41-2.22-1.44-1.84-2.83l1.23-4.62a2.14,2.14,0,0,1,2.49-1.74,2,2,0,0,1,.4.11A2.11,2.11,0,0,1,132.37,265.18Zm9.13.71a2,2,0,0,1-.13.34c-.79,1.33-1.58,2.65-2.38,3.94-.21,1.06-.41,2.12-.62,3.18a.82.82,0,0,1-1.06.49.8.8,0,0,1-.53-.8h.05c.21-1.06.42-2.12.64-3.18-.25-1.48-.47-3-.69-4.44a.9.9,0,0,1,0-.4.65.65,0,0,1,.74-.56l.09,0c.49.1.61.34.68.87.11.94.24,1.89.36,2.83.48-.84,1-1.68,1.43-2.53.24-.43.47-.59.9-.51a.59.59,0,0,1,.53.66S141.5,265.86,141.5,265.89Zm14.85,3.58v.36c-.09.93-.46,1.48-1.18,1.67a1.74,1.74,0,0,1,1,2,2.59,2.59,0,0,1-.08.78c-.13,1.4-1,2.07-2.65,1.9L151.7,276a.74.74,0,0,1-.77-.73,0,0,0,0,1,0-.05q.47-3.81.94-7.61a.71.71,0,0,1,.78-.63h.07l1.55.17C155.86,267.32,156.48,268.07,156.35,269.47Zm9.32,1.2a1.67,1.67,0,0,1-1.11,1.74c.78.26,1,.94,1,2l-.06,1.42a1.57,1.57,0,0,0,0,.53,2,2,0,0,1,0,.35c0,.32-.3.47-.79.45-.66,0-1-.35-.91-1.16l.09-1.74c0-.85-.22-1.13-.94-1.17h-.54c-.07,1.09-.14,2.18-.2,3.26,0,.46-.34.7-.85.66a.71.71,0,0,1-.75-.8q.24-3.87.53-7.73a.68.68,0,0,1,.69-.68H162l1.52.1c1.59.08,2.25.8,2.19,2.2Zm7.87,1.21a.67.67,0,0,1,.71.64h0a.67.67,0,0,1-.68.66H172V276h2a.65.65,0,0,1,0,1.3h-3a.73.73,0,0,1-.72-.73c0-2.56.09-5.12.14-7.67a.71.71,0,0,1,.72-.71H174a.65.65,0,0,1,0,1.3h-2v2.41Zm12.64-3.37c-.11,2.54-.22,5.08-.36,7.61a1.09,1.09,0,0,1-2.15.17h0c-.32-1.8-.64-3.6-.94-5.4-.12,1.8-.24,3.61-.37,5.42a1,1,0,0,1-1,1h-.15a1,1,0,0,1-1.24-.68.8.8,0,0,1,0-.31c-.38-2.45-.74-4.9-1.1-7.35a.67.67,0,0,1,0-.2.7.7,0,0,1,.66-.75h.06a.65.65,0,0,1,.73.55.13.13,0,0,0,0,.06c.31,2.16.62,4.33.94,6.48.15-2.13.28-4.26.41-6.39a1,1,0,0,1,1.87-.12v0c.34,2.11.7,4.21,1.06,6.32.1-2.2.19-4.41.27-6.61a.67.67,0,0,1,1.32,0Zm6,8a.81.81,0,0,1-.84-.69l-.75-7.79a.78.78,0,0,1,.8-.76.8.8,0,0,1,.74.61c.28,2.59.55,5.19.82,7.78A.81.81,0,0,1,192.17,276.5Zm10.28-1.3a.73.73,0,0,1-.25,0,1,1,0,0,1-1.14-.69c-.86-1.86-1.71-3.72-2.54-5.6.28,2,.57,4,.85,6,.06.4-.18.67-.63.73a.67.67,0,0,1-.83-.53q-.51-3.75-1-7.5a1,1,0,0,1,.79-1.17h.08a1.13,1.13,0,0,1,1.27.78q1,2.19,2,4.37c-.24-1.62-.49-3.24-.74-4.86a.61.61,0,0,1,.47-.72h.11a.62.62,0,0,1,.77.42.36.36,0,0,0,0,.1l1.23,7.69A.76.76,0,0,1,202.45,275.2Zm7.65-1.43a2.4,2.4,0,0,1-2.65-1.78l0,0c-.29-1.57-.59-3.14-.89-4.7a2.35,2.35,0,0,1,4.6-.91v.18a.77.77,0,0,1-.68.82.75.75,0,0,1-.78-.52.52.52,0,0,0-.05-.27c-.14-.64-.49-.82-1-.72s-.75.4-.62,1l1,4.88c.13.64.49.81,1,.71a.75.75,0,0,0,.69-.8,1.18,1.18,0,0,0,0-.2l-.36-1.75h-.16a.65.65,0,1,1-.36-1.25l.1,0,.85-.17a.72.72,0,0,1,.9.47l0,.06.48,2.22A2.43,2.43,0,0,1,210.1,273.77Zm15.48-3.6a2.39,2.39,0,0,1-2.83-1.57h0l-1.32-4.72a2,2,0,0,1,1.17-2.66,1.69,1.69,0,0,1,.44-.12,2.09,2.09,0,0,1,2.75,1.1,2,2,0,0,1,.13.39,1.54,1.54,0,0,0,.1.35.67.67,0,0,1-.44.84l-.08,0a.69.69,0,0,1-.9-.38.14.14,0,0,1,0-.06,1.41,1.41,0,0,0-.13-.43.74.74,0,0,0-.82-.64l-.18,0a.72.72,0,0,0-.57.84.43.43,0,0,0,0,.16c.47,1.63,1,3.26,1.41,4.89a.74.74,0,0,0,.84.62l.16,0A.73.73,0,0,0,226,268a.75.75,0,0,0,0-.16c-.08-.25-.15-.5-.23-.76a.69.69,0,0,1,.48-.85h.06a.67.67,0,0,1,.89.34.36.36,0,0,1,0,.09l.21.66A2.41,2.41,0,0,1,225.58,270.17Zm9.33-3c-1.59.54-2.6,0-3.06-1.39l-1.53-4.54a2.11,2.11,0,0,1,1.09-2.79,2.06,2.06,0,0,1,.44-.14,2.16,2.16,0,0,1,2.88,1,2.85,2.85,0,0,1,.12.31l1.65,4.5C237,265.58,236.5,266.67,234.91,267.21Zm12.73-5a.68.68,0,0,1-1-.31c-.85-2-1.69-3.91-2.55-5.87.52,2.11,1,4.22,1.52,6.33a.71.71,0,0,1-.48.87h0a.73.73,0,0,1-1-.25v0c-1.17-1.84-2.32-3.69-3.47-5.54q1.23,3,2.44,6c.15.38,0,.68-.45.85s-.71.06-.85-.32L239,257a1,1,0,0,1,.35-1.37,1,1,0,0,1,.28-.11,1.14,1.14,0,0,1,1.55.44v0l3,4.86-1.38-5.55a1.05,1.05,0,0,1,.66-1.34l.07,0a1.09,1.09,0,0,1,1.48.42l.07.14q1.53,3.42,3,6.84C248.27,261.71,248.09,262.05,247.64,262.25Zm6.09-6.81-.7.33,1.35,2.77c.2.41,0,.78-.45,1a.72.72,0,0,1-1-.2.33.33,0,0,1-.07-.13c-1.12-2.34-2.25-4.67-3.37-7a.67.67,0,0,1,.24-.93l.17-.07,1.41-.66a2.14,2.14,0,0,1,3,.58,2.78,2.78,0,0,1,.22.42l.42.8C255.59,253.65,255.23,254.73,253.73,255.44Zm12-1.91-.13.07a.84.84,0,0,1-1.12-.17c-.26-.32-.51-.64-.77-1l-1.77,1,.41,1.14a.73.73,0,0,1-.32,1l-.07,0a.7.7,0,0,1-1-.21.2.2,0,0,1,0-.08.58.58,0,0,1-.08-.22q-1.12-3.6-2.32-7.19a1.17,1.17,0,0,1,.64-1.45,1.23,1.23,0,0,1,1.59.26c1.65,1.93,3.32,3.84,5,5.75l.12.17A.68.68,0,0,1,265.68,253.53Zm8.7-5.06a1,1,0,0,1-1.38-.15q-2.4-2-4.77-4.07l3.3,5.21c.22.34.1.69-.31.94a.72.72,0,0,1-1.05-.16q-2-3.24-4-6.48a1,1,0,0,1,.26-1.39l.09-.05a1.23,1.23,0,0,1,1.57.17c1.22,1.07,2.46,2.13,3.7,3.18l-2.72-4.16a.6.6,0,0,1,.11-.84.71.71,0,0,1,.15-.08.66.66,0,0,1,.93.06l.07.09c1.46,2.18,2.92,4.36,4.36,6.55C275,247.81,274.84,248.19,274.38,248.47Zm7.41-4.82-.07,0a.81.81,0,0,1-1.14,0l-.05-.07-1.92-2.66c-1.3-.84-2.6-1.68-3.88-2.53a1.18,1.18,0,0,1-.3-.29.67.67,0,0,1,.12-.94l.1-.06c.43-.29.71-.22,1.16.09.8.56,1.61,1.11,2.42,1.66-.28-.94-.57-1.87-.86-2.8-.15-.48-.1-.76.28-1a.65.65,0,0,1,.93,0l.07.08a1.35,1.35,0,0,1,.17.34c.41,1.48.82,3,1.2,4.47l2,2.61A.77.77,0,0,1,281.79,243.65Z"/><path d="M235,264.84l0,0-1.68-4.68c-.22-.62-.6-.74-1.08-.58s-.69.5-.48,1.11c.54,1.57,1.09,3.13,1.63,4.7a.77.77,0,0,0,.89.64.83.83,0,0,0,.21-.06.76.76,0,0,0,.55-.92A1.07,1.07,0,0,0,235,264.84Z"/><path d="M130.19,264.11c-.49-.12-.85,0-1,.67-.42,1.61-.84,3.22-1.24,4.81a.85.85,0,0,0,1.59.59,1.21,1.21,0,0,0,.05-.18h0c.39-1.61.79-3.22,1.18-4.83C130.92,264.54,130.68,264.23,130.19,264.11Z"/><path d="M154,268.45l-.75-.08-.27,2.39.71.05c.59.07,1-.13,1-.85v-.51C154.75,268.81,154.54,268.45,154,268.45Z"/><path d="M153.63,272.12l-.71-.08c-.1.92-.21,1.85-.31,2.78l.92.1c.54.06.85-.14.92-.81a2.69,2.69,0,0,1,.08-.79C154.62,272.48,154.34,272.19,153.63,272.12Z"/><path d="M108.75,97.19a21.41,21.41,0,0,0-2.67,5.28,3.5,3.5,0,0,1,.2.65c.15.73-.22,2.47-1.12,2.59H105c-.13.47-.27,1-.39,1.48-1.67,10.25,2.58,22.89,13.14,32.9-4.86-8.91-7-18.89-5.78-25.09,3-15,20-23.71,36.83-19.71a32.7,32.7,0,0,1,3.76,1.12C137,85.25,117.55,85.52,108.75,97.19Z"/><path d="M235.52,97.19a21.41,21.41,0,0,1,2.67,5.28,3.5,3.5,0,0,0-.2.65c-.15.73.22,2.47,1.12,2.59h.15c.13.47.26,1,.39,1.48,1.67,10.25-2.58,22.89-13.15,32.9,4.87-8.91,7-18.89,5.79-25.09-3-15-20-23.71-36.83-19.71a32.12,32.12,0,0,0-3.76,1.12C207.29,85.25,226.72,85.52,235.52,97.19Z"/><path d="M201.45,70.46a30,30,0,0,0-5.17-7.72s4.82-3.73,6.82-6.85a5.89,5.89,0,0,1-2.72-1.75s4.18-7.88,5.1-9.82l-2.18.47s2.65-5.67,2.81-10.2a97.64,97.64,0,0,0-9.37,5s-.84-1.09-.55-1.89-7,8-8.59,8.24c0,0-2.94-.57-.64-4.15A33.79,33.79,0,0,0,190.84,31s-3.05-.75-7.05,2.41c0,0-3.08-2.75-2.52-9.11a4.39,4.39,0,0,0-2.47,1.61s-6.54-11.95-6.76-16c-.14,4.11-6.36,16-6.36,16a4.38,4.38,0,0,0-2.5-1.55c.7,6.34-2.32,9.16-2.32,9.16-4.07-3.06-7.1-2.25-7.1-2.25,4.5,12.61,3.57,14.9,3.57,14.9-1.62-.25-9.09-8.84-8.77-8s-.51,1.9-.51,1.9a97.26,97.26,0,0,0-9.48-4.78c.26,4.52,3,10.13,3,10.13l-2.19-.43c1,1.93,5.32,9.71,5.32,9.71a5.88,5.88,0,0,1-2.69,1.81c2.07,3.08,7,6.7,7,6.7a30.08,30.08,0,0,0-5,7.83c4.84,2.21,14.5-2.15,14.5-2.15l-1,4.51,1.54-.91a48.59,48.59,0,0,1,10.35-2.86,1.77,1.77,0,0,1,2,1.81V91.47c0,3.2,2.19,3.53,2.33,0l.39-20.13a1.78,1.78,0,0,1,2.07-1.72,33,33,0,0,1,11.29,3.92l-.95-4.23S196.66,72.78,201.45,70.46Zm-16.47-5c-1.88.24-8.75-1-9.58.33s-2.66,1.74-3.5.72c-.5-.61.84-1.19-8-.81s-4.13-1.66.51-1.56c5.83.13-.7-1.85-3.67-3.75s-9.72-7.64-11.47-12,.78-2.24,2.45.4A24.05,24.05,0,0,0,156.76,54c10.63,8.14,14.93,9,14.93,9,1.21,0,.35-3.88.15-8s-.59-5-1.27-5.83a48.79,48.79,0,0,0-3.73-4c-10.93-12-5.56-8.83,2.58-1.21,2.81,2.63,2.92,3.27,2.83-2,0-2.47.08-5.37.19-10.4s1.91-1.31,1.88.39.6,8.09.2,12.62c-.29,3.27,2,.81,6.74-4s6.3-3.68,1,2-7.05,6.24-6.91,12c.21,8.63.8,7.46.8,7.46a69.57,69.57,0,0,0,17.44-11.81c4.25-4.17,4.58-2.89,1.35,1.61a31,31,0,0,1-10.19,8.58c-4.05,2.08-5.8,3-.23,3S188.83,64.94,185,65.43Z"/><path class="cls-1" d="M141.58,246.09a92.58,92.58,0,0,1-8.85-3.22V208.81h7.56c6,0,9,3.54,8.94,10.32,0,3.19-1.35,5.84-2.9,7,2.5,1.92,4.46,6,4.43,10.44C150.7,243.82,147.5,248,141.58,246.09ZM140.22,214l-2.88-.13v8.9l2.86.39c2.91.37,4.5-.84,4.52-4.33S143.13,214.13,140.22,214Zm1,14.59c-1.6-.27-2.39-.41-4-.72v11.7c1.57.49,2.36.72,3.95,1.16,3.2.88,5-.83,5-4.94s-1.69-6.66-4.91-7.2Z"/><path class="cls-1" d="M155.72,249.53q.17-20.31.29-40.72h14.34v6.46c-3.89,0-5.84-.05-9.73-.12,0,3.67,0,5.51-.06,9.19,3.45.16,5.18.22,8.63.28v6.45c-3.47-.08-5.2-.16-8.65-.4,0,5.29,0,7.94-.08,13.23,4.09.44,6.15.58,10.26.7v6.46A91,91,0,0,1,155.72,249.53Z"/><path class="cls-1" d="M175.5,251.11v-42.3h14.31v6.29c-3.9.09-5.84.12-9.74.16v9.34c3.45-.07,5.18-.13,8.62-.31v6.31c-3.45.26-5.18.35-8.65.45V244.5c4.11-.19,6.17-.37,10.25-.9v6.28A91.58,91.58,0,0,1,175.5,251.11Z"/><path class="cls-1" d="M210.42,244.88c-2.76-3.83-4.17-6-7-10.54-1.46.27-2.19.4-3.65.63,0,5.22.07,7.83.11,13.06-1.85.45-2.78.65-4.64,1q-.15-20.11-.31-40.24h8.62c6.09,0,9.6,5.31,9.62,11.71,0,4.68-1.77,9.08-5.13,11.72a118.75,118.75,0,0,0,7.61,10.63C213.58,243.73,212.53,244.13,210.42,244.88Zm-7.24-30.44-3.57.13.12,14.65c1.43-.18,2.14-.28,3.56-.48,3-.43,5.19-3,5.16-7.65S206.15,214.32,203.18,214.44Z"/></svg>