<svg id="Layer_1" data-name="Layer 1" xmlns="http://www.w3.org/2000/svg" viewBox="0 0 358.78 340.38"><defs><style>.cls-1{fill:#5c5c5c;}.cls-2{fill:#fff;}</style></defs><title>logo white w shadow</title><path class="cls-1" d="M149.53,196.42v12.36h-1.68V196.42h-2.61v-2.23h6.89v2.23Z"/><path class="cls-1" d="M158.58,208.78v-6.85h-3.46v6.85h-1.68V194.19h1.68v5.47h3.46v-5.47h1.68v14.59Z"/><path class="cls-1" d="M162.38,208.78V194.19h5.18v2.23h-3.51v3.24h3.1v2.23h-3.1v4.66h3.66v2.23Z"/><path class="cls-1" d="M176.46,209c-2.41,0-4-3.37-4-7.52s1.59-7.55,4-7.55c1.32,0,2.35.9,2.95,2.54l-.91,1.35c-.48-1-1.07-1.62-1.9-1.62-1.3,0-2.43,1.93-2.43,5.28s1.13,5.25,2.43,5.25c.83,0,1.42-.64,1.9-1.6l.91,1.34C178.78,208.13,177.78,209,176.46,209Z"/><path class="cls-1" d="M181,208.78V194.19h1.67v12.36h3.43v2.23Z"/><path class="cls-1" d="M187.34,208.78V194.19h5.18v2.23H189v3.24h3.1v2.23H189v4.66h3.66v2.23Z"/><path class="cls-1" d="M199.37,208.78v-4.7h-3.32v4.7h-1.67v-9c0-3.68,1.45-5.82,3.33-5.82s3.34,2.14,3.34,5.82v9Zm0-9.08c0-2.29-.7-3.48-1.66-3.48s-1.66,1.19-1.66,3.48v2.15h3.32Z"/><path class="cls-1" d="M208.71,208.78l-4.07-9.54v9.54h-1.47V194.19h1.09l4.07,9.54v-9.54h1.47v14.59Z"/><path class="cls-1" d="M211.91,208.78V194.19h5.19v2.23h-3.51v3.24h3.1v2.23h-3.1v4.66h3.66v2.23Z"/><path class="cls-1" d="M224.5,208.78,222,203.93h-1.32v4.85H219V194.19h3.11c2.2,0,3.47,2.21,3.47,4.88,0,2-.66,3.63-1.9,4.4l2.81,5.31Zm-2.58-12.45h-1.29v5.45h1.29c1.08,0,1.9-.87,1.9-2.71S223,196.33,221.92,196.33Z"/><path class="cls-1" d="M144.15,310.18c2.54.94,5.09-1.86,1.1-3.56a7.66,7.66,0,0,0-4.22.29A5,5,0,0,0,144.15,310.18Z"/><path class="cls-1" d="M150.78,310.13a1,1,0,0,0,1.62-1.27c-.92-1.76-4-5-14-8.62,0,0-5.47-1.91.41,1.23s10.12,5.55,11.31,7.75A3.21,3.21,0,0,0,150.78,310.13Z"/><line class="cls-1" x1="139.19" y1="306.16" x2="126.95" y2="300.68"/><path class="cls-2" d="M138.78,307.07l-12-6.08a.36.36,0,0,1-.15-.46.34.34,0,0,1,.43-.16l12.51,4.87a1,1,0,0,1,.57,1.3,1,1,0,0,1-1.3.57Z"/><path class="cls-1" d="M149.68,311.42a1,1,0,0,1,.2,2.05c-1.91.55-6.35.55-15.92-4.21,0,0-5.15-2.63,1.18-.54s11,3.49,13.41,2.83A3.49,3.49,0,0,1,149.68,311.42Z"/><line class="cls-1" x1="141.83" y1="305" x2="130.48" y2="299.38"/><path class="cls-2" d="M141.39,305.9l-11.06-6.21a.34.34,0,0,1-.13-.47.34.34,0,0,1,.43-.14l11.65,5a1,1,0,0,1,.52,1.31,1,1,0,0,1-1.32.53Z"/><line class="cls-1" x1="139.6" y1="308.8" x2="127.75" y2="303.83"/><path class="cls-2" d="M139.22,309.73l-11.6-5.59a.34.34,0,0,1,.26-.62L140,307.88a1,1,0,0,1,.6,1.28,1,1,0,0,1-1.28.61Z"/><path class="cls-1" d="M162.39,312.65l-4-3.77s-1.54-1.15-.34-2.2,2.21.31,2.57.81,3.09,3.53,3.5,4.17a1.18,1.18,0,0,1,0,1.61C163.64,313.65,162.39,312.65,162.39,312.65Z"/><path class="cls-1" d="M156.81,311.38l-4-3.77s-1.54-1.15-.34-2.2,2.21.31,2.57.81,3.09,3.53,3.5,4.16a1.18,1.18,0,0,1,0,1.62C158.06,312.38,156.81,311.38,156.81,311.38Z"/><path class="cls-1" d="M166,307.87a2.27,2.27,0,0,0-2,.14c-1,.63,0,1.69.49,2.21s1.06,1,1.06,1l1.62-1.25.26-.24A8.32,8.32,0,0,0,166,307.87Z"/><path class="cls-1" d="M161.21,314.22l-5.36,1.34s-1.9.25-1.36,1.76,2.08.8,2.64.54,4.41-1.58,5.08-1.94.95-.88.76-1.42S161.21,314.22,161.21,314.22Z"/><path class="cls-1" d="M155.72,312.61,150.36,314s-1.9.25-1.36,1.76,2.07.8,2.63.55,4.42-1.59,5.09-1.95.95-.88.76-1.42S155.72,312.61,155.72,312.61Z"/><path class="cls-1" d="M181.49,316a.74.74,0,0,0,1.08,0l1.13-1.3a.75.75,0,0,0,0-1l-2.27-2.17c-.57,1.08-1.12,2-1.63,2.88Z"/><path class="cls-1" d="M186,314.57l1.22,1.17a.74.74,0,0,0,1.08-.05l1.51-1.72c-.72-1.36-1-1.94-1-1.94a9.92,9.92,0,0,0-.54-1.1l-2.28,2.61A.75.75,0,0,0,186,314.57Z"/><path class="cls-1" d="M187.32,318.22l-1.13,1.29a.75.75,0,0,0,0,1l.9.85a.74.74,0,0,0,1.08,0l1.13-1.3a.75.75,0,0,0-.05-1l-.89-.86A.75.75,0,0,0,187.32,318.22Z"/><path class="cls-1" d="M180,318.93l1-1.13a.76.76,0,0,0-.05-1l-1.66-1.59c-.61,1-1.15,1.88-1.57,2.65L178.9,319A.74.74,0,0,0,180,318.93Z"/><path class="cls-1" d="M189,317.42l.9.86a.75.75,0,0,0,1.08,0l.69-.78-.08-.16c-.51-1-.93-1.76-1.29-2.43l-1.34,1.53A.74.74,0,0,0,189,317.42Z"/><path class="cls-1" d="M191.05,320.71a.75.75,0,0,0-1.08.05l-1.13,1.29a.76.76,0,0,0,0,1l2.13,2c.42-.71.67-1.18.67-1.18a8.77,8.77,0,0,0,.82-1.83Z"/><path class="cls-1" d="M178.34,319.73l-1.09-1a4.1,4.1,0,0,0-.23,3.63l1.36-1.56A.75.75,0,0,0,178.34,319.73Z"/><path class="cls-1" d="M185.73,326.8a.74.74,0,0,0-1.08.05l-1.6,1.83a.78.78,0,0,0,.06,1.06c1.86,2,2.64,1.87,4.33.17.25-.25.49-.51.73-.78Z"/><path class="cls-1" d="M184,325.12l-.89-.86a.74.74,0,0,0-1.08.05l-1.88,2.14c.88,1,1.47,1.69,1.82,2.07l2.08-2.37A.75.75,0,0,0,184,325.12Z"/><path class="cls-1" d="M184.33,315.37l-1.13,1.29a.76.76,0,0,0,.05,1l1.22,1.17a.75.75,0,0,0,1.08-.05l1.13-1.29a.75.75,0,0,0,0-1l-1.23-1.17A.75.75,0,0,0,184.33,315.37Z"/><path class="cls-1" d="M191.57,318.93a.75.75,0,0,0,.05,1l1.07,1a6.34,6.34,0,0,0-.62-2.61Z"/><path class="cls-1" d="M181.36,323.61a.74.74,0,0,0,0-1l-1.23-1.17a.74.74,0,0,0-1.08,0l-1.52,1.73a10.71,10.71,0,0,0,.66.9l1.36,1.64Z"/><path class="cls-1" d="M184.22,312.89a.75.75,0,0,0,1.08-.05l2.4-2.74c-1.24-1.81-3.44-3.67-5.85.52Z"/><path class="cls-1" d="M188.77,328.41a28.94,28.94,0,0,0,1.75-2.47l-2.2-2.1a.74.74,0,0,0-1.08.05l-1,1.12a.76.76,0,0,0,.05,1Z"/><path class="cls-1" d="M181.89,321.83a.75.75,0,0,0,1.08-.05l1-1.13a.74.74,0,0,0,0-1l-1.23-1.17a.74.74,0,0,0-1.08,0l-1,1.13a.75.75,0,0,0,0,1Z"/><path class="cls-1" d="M185.62,324.32l1-1.13a.75.75,0,0,0-.05-1l-.89-.86a.76.76,0,0,0-1.09.05l-1,1.12a.76.76,0,0,0,.05,1l.89.86A.75.75,0,0,0,185.62,324.32Z"/><path class="cls-1" d="M194.14,312.23l6.8,4.15c-.34,1.87,1,5.73,2.41,8-.85-.08-1.77-.15-2.72-.19-.5-.68-1.3-1.69-2.56-3.15C195.14,317.66,194.14,312.23,194.14,312.23Z"/><path class="cls-1" d="M194.28,311.07a42.73,42.73,0,0,0-5.38-2.24,4.9,4.9,0,0,0-1.9-.16,1.76,1.76,0,0,1,.55-.68,14.49,14.49,0,0,1,11.76,1.4,13.58,13.58,0,0,1,1.81,1.25A33.64,33.64,0,0,0,194.28,311.07Z"/><path class="cls-1" d="M202.74,316.63a9.6,9.6,0,0,1,3.87,1,35.93,35.93,0,0,1,3,7h0C207.59,320.81,202.74,316.63,202.74,316.63Z"/><path class="cls-1" d="M196.25,311.89l.4-.05a15.83,15.83,0,0,1,5.83.05,25,25,0,0,1,3.4,4.48,32.2,32.2,0,0,0-4.35-1Z"/><path class="cls-1" d="M204,323.25a12.77,12.77,0,0,1-2.24-6.22c5.22,4.19,7,8,7,8,.07.24.13.46.2.67a10.49,10.49,0,0,1-1.87-.62,10.8,10.8,0,0,0-2.15-.44C204.69,324.2,204.38,323.75,204,323.25Z"/><path class="cls-1" d="M195,322.48c-.23-.24-.65-.67-.86-.9-.09.16-.12.54-.21.69-.22.39-.63.93-1.14,1.66a.44.44,0,0,0,.51.52,17,17,0,0,1,3.45-.3C196.26,323.7,195.66,323.13,195,322.48Z"/><path class="cls-1" d="M194.93,317.45a24,24,0,0,1-1.71-5.38,1,1,0,0,0-.58-.73c-.42-.19-1.08-.47-1.82-.77a1,1,0,0,0-1.24,1.45l0,0c1.72,3,4.12,7.44,4.54,8.2a.8.8,0,0,0,.15.21l1.35,1.42c.68.7,1.27,1.36,1.7,1.89a1,1,0,0,0,.77.37c.4,0,.82,0,1.23,0A32,32,0,0,1,194.93,317.45Z"/><path class="cls-1" d="M175.48,312l-6.93,3.94c.28,1.88-1.14,5.7-2.65,7.95.86,0,1.78-.09,2.72-.1.53-.67,1.36-1.65,2.66-3.07C174.32,317.35,175.48,312,175.48,312Z"/><path class="cls-1" d="M175.37,310.79a44,44,0,0,1,5.44-2.09,5.27,5.27,0,0,1,1.91-.1,1.77,1.77,0,0,0-.53-.69,14.48,14.48,0,0,0-11.79,1,12.12,12.12,0,0,0-1.85,1.19A33.4,33.4,0,0,1,175.37,310.79Z"/><path class="cls-1" d="M166.74,316.09a9.6,9.6,0,0,0-3.89.87,35.66,35.66,0,0,0-3.2,6.9h0C161.78,320.12,166.74,316.09,166.74,316.09Z"/><path class="cls-1" d="M173.38,311.54l-.4-.06a15.94,15.94,0,0,0-5.83-.12,24.94,24.94,0,0,0-3.53,4.37,31.64,31.64,0,0,1,4.38-.9Z"/><path class="cls-1" d="M165.26,322.66a12.77,12.77,0,0,0,2.43-6.14c-5.35,4-7.21,7.73-7.21,7.73l-.22.67a10.38,10.38,0,0,0,1.88-.57,10.6,10.6,0,0,1,2.17-.38C164.57,323.59,164.89,323.16,165.26,322.66Z"/><path class="cls-1" d="M174.29,322.16c.23-.22.67-.64.88-.86.09.16.11.53.19.69.21.39.51,1,1,1.75,0,.17-.26.49-.42.45a17.58,17.58,0,0,0-3.44-.41C173,323.35,173.63,322.8,174.29,322.16Z"/><path class="cls-1" d="M174.53,317.15a24.62,24.62,0,0,0,1.87-5.33,1,1,0,0,1,.6-.71c.43-.18,1.09-.44,1.85-.72a1,1,0,0,1,1.19,1.48l0,0c-1.81,3-4.35,7.32-4.78,8.07a1.08,1.08,0,0,1-.16.2l-1.39,1.38c-.7.67-1.31,1.32-1.76,1.84a1,1,0,0,1-.78.35l-1.23,0A31.6,31.6,0,0,0,174.53,317.15Z"/><path class="cls-1" d="M225.13,309.12c-2.52,1-5.1-1.81-1.13-3.55a7.65,7.65,0,0,1,4.22.24A5,5,0,0,1,225.13,309.12Z"/><path class="cls-1" d="M218.51,309.15a1.05,1.05,0,0,1-1.64-1.26c.9-1.77,3.93-5,13.93-8.77,0,0,5.45-2-.4,1.23s-10.05,5.67-11.22,7.87A3.14,3.14,0,0,1,218.51,309.15Z"/><line class="cls-1" x1="230.06" y1="305.05" x2="242.23" y2="299.43"/><path class="cls-2" d="M229.64,304.14l12.45-5a.34.34,0,0,1,.29.61L230.47,306a1,1,0,1,1-.92-1.77Z"/><path class="cls-1" d="M219.62,310.42a1,1,0,0,0-.18,2.05c1.92.53,6.36.48,15.88-4.38,0,0,5.12-2.69-1.19-.53s-11,3.61-13.37,3A3.53,3.53,0,0,0,219.62,310.42Z"/><line class="cls-1" x1="227.4" y1="303.92" x2="238.69" y2="298.18"/><path class="cls-2" d="M226.94,303l11.6-5.16a.35.35,0,0,1,.45.18.34.34,0,0,1-.14.43l-11,6.33a1,1,0,1,1-1-1.73Z"/><line class="cls-1" x1="229.67" y1="307.7" x2="241.47" y2="302.6"/><path class="cls-2" d="M229.27,306.78l12.06-4.49a.34.34,0,0,1,.44.2.35.35,0,0,1-.17.42l-11.53,5.7a1,1,0,1,1-.89-1.79Z"/><path class="cls-1" d="M206.93,311.79l4-3.81s1.53-1.17.32-2.21-2.2.34-2.56.83-3,3.57-3.45,4.21a1.17,1.17,0,0,0,0,1.61C205.69,312.8,206.93,311.79,206.93,311.79Z"/><path class="cls-1" d="M212.49,310.46l4-3.82s1.53-1.16.31-2.2-2.2.34-2.56.83-3,3.57-3.45,4.21a1.19,1.19,0,0,0,0,1.61C211.25,311.47,212.49,310.46,212.49,310.46Z"/><path class="cls-1" d="M203.3,307.05a2.25,2.25,0,0,1,2,.12c1,.61,0,1.68-.47,2.21s-1.05,1.05-1.05,1.05l-1.64-1.23-.26-.23A8.35,8.35,0,0,1,203.3,307.05Z"/><path class="cls-1" d="M208.12,313.35l5.37,1.27s1.91.24,1.39,1.75-2.07.82-2.64.57-4.43-1.54-5.1-1.88-1-.88-.78-1.42S208.12,313.35,208.12,313.35Z"/><path class="cls-1" d="M213.6,311.68,219,313s1.9.23,1.38,1.74-2.07.82-2.63.58-4.43-1.54-5.1-1.89-1-.87-.78-1.41S213.6,311.68,213.6,311.68Z"/><path class="cls-1" d="M190.3,183.28s4,4.94,7.29,2.88-.21-4.29-1.15-3.58a1.89,1.89,0,0,0-.79,1.7,6.64,6.64,0,0,1-3.53-2.29c-1.88-2.06-4.29-3.17-6.35-1.06a4.21,4.21,0,0,0,1.35,6.59c2.24.82,3.41-2.83-.17-2.88C187,184.64,186.62,180.35,190.3,183.28Z"/><path class="cls-1" d="M178.41,183.52s-4,4.94-7.29,2.88.21-4.29,1.15-3.59a1.91,1.91,0,0,1,.79,1.71,6.73,6.73,0,0,0,3.53-2.29c1.88-2.06,4.29-3.18,6.35-1.06a4.2,4.2,0,0,1-1.35,6.58c-2.24.82-3.41-2.82.18-2.88C181.77,184.87,182.09,180.58,178.41,183.52Z"/><rect class="cls-1" x="143.56" y="183.72" width="23.99" height="2.51" rx="0.94"/><rect class="cls-1" x="201.76" y="183.72" width="23.99" height="2.51" rx="0.94"/><path class="cls-1" d="M67.86,257l16.52,12.2s7.92,5.81-5.88,3.42-16.73-3.07-16.72-10.3S62.07,252,67.86,257Z"/><path class="cls-1" d="M91.35,229.54s8.55,8.64,6.81,4.12c-2-5.22-1.47-5.91,1.32-10.44,2.16-3.5,6.93-7.93,3.39-10.61-5.6-4.24-11.92-11.81-22.64-7.33S67,223.12,67,223.12s0,1.8,3-.49c2.36-1.79,4-4.07,8.65-1.73a33.09,33.09,0,0,1,4.77,2.75C88.61,227.51,90,228.23,91.35,229.54Z"/><path class="cls-1" d="M109.06,74.8a.19.19,0,0,1-.1-.37c2.93-1.28,10.33-4.73,11.6-7.26,1.59-3.18.4-4.77-1.72-5.7s-.53-3.7,4.9-4.5,4,7.81,2.51,8.81c0,0,5.57-2.59,9.54,1.12s7.55,3.44,7.15,1.59a3.66,3.66,0,0,0-2.65-2.74c-.53,0,2.38-2.16,5.83.62s1.85,8.08-4.64,8.87-9.27-4.63-10.06-5.43a7.92,7.92,0,0,0-6-1.45,9.57,9.57,0,0,0-4.37,1.85s4,.66,4,3.71a8.45,8.45,0,0,1-2.91,6.62c-1.59,1.32,0-3.84-1.19-4.77S114.67,74.25,109.06,74.8Z"/><path class="cls-1" d="M128.66,160.72c-.82-5-5.26-2.11-6.89-3.48s1.91-1.84,3.61-1.23,2.67,1.44,1.58-1.43-4-2.87-6.77-2.67-10.58,6-10.58,6l-13.94,1.71s0-1.91,3.21-5.33,4.85-8.67,3.21-17.21-3.18-6-5.87-3a104.53,104.53,0,0,1-12.16,11.1c-1,.56.49,1.81.49,1.81,1.91,2.32,2.59,10.55,1,17.25s1.36,6.69,4.3,4.57,19.74-4.57,19.74-4.57c-1,4.37,1.78,7.51,4,8s4-1,1.71-1.71-2.19-3-1.44-4.57,2.53-2.33,3.14-.82.28,1,3.76,1.84,3.48,2.8,3.48,2.8c-.61,4.85.48,4,2.8,1.23s.35-5.74-1.91-6.83-3.48-2.12-2.59-2.66a4.31,4.31,0,0,1,4,.68C127.09,162.91,129.48,165.71,128.66,160.72Z"/><path class="cls-1" d="M114.88,101.2c-2.51,0-2.45-.68-1.74-.79a12.33,12.33,0,0,1,3.36.55c2.1.51,1.37-1.32-1.87-3.48s-8,4.77-9.69,5.4-7.45,2.52-10.82,2.55.32-6.74-5.59-6.54c-3.14.11-3.91-1.85.56-1.67s4.54,6.92,5.88,6.92,8.36-1,8.36-1.8S99.07,97,94.94,94.63,83.1,85.1,80.27,78.88s3.84-9.15,3.84-9.15c-.47,4.54,4.26,1.53,6.64,1.84s4.41,2.61,5.49,4.39,3.91,7.65,8.39,3.49-.83-4-1.18-3.59-2.44.92-2.47-.44-1.91-1.81-1.91-1.81c-2.06-2.7,1-1.43,1-1.43,4.63.63,4.7-1.24,1.62-1.69s-3.18-3.71-3.18-3.71,4-2.13,4.57-.13,1.75,1,2.42,1,.21,1.14.21,1.14c1.86,5,3,.84,3,.84s1.85-7.41-2.92-9A24.11,24.11,0,0,0,96,60s-.21,0-.06-.67C96.57,56.7,91,56,88.65,56.92s-14,0-14,0l4.9,3.76C73.33,65,66.1,68.79,66.58,80.13s6.35,15,7.24,17.62A27.33,27.33,0,0,1,75,103.22c.06.41.11.81.15,1.22a9.6,9.6,0,0,1-8.41-2.52c-5-4.37-6.56-9-6.08-13.52a30.11,30.11,0,0,1,.75-5.26l-6-5.67L25.64,44.79a.73.73,0,0,0-1.27.43l.27,14.35a1.44,1.44,0,0,0,.52,1.24l28.52,23.9c0,.29-.06.58-.08.89-6.4-4.56-22.33-16-28-20.8-7.17-6.11-3.28,4.61-2.25,6.79s2.73,7,12.9,12a71.14,71.14,0,0,0,17.34,5.83c0,.39.06.79.1,1.19a45.21,45.21,0,0,1-16.25-4.49C29.56,82,22,75.15,24.57,81.57s6.49,10.86,11.14,11.74a102.16,102.16,0,0,0,18.8,1.38c.17.56.36,1.13.58,1.69-2.5.36-11,1.38-16.58-.19-6.63-1.85-11.48-4.22-8.2,0s7.45,8.39,11.27,8c3.26-.35,13-2.15,15.74-3.46.26.38.53.77.82,1.15-2.73,1-8.53,3.15-11.64,3.41-4.17.34-12.16.13-5.81,3.27s10.59,2.19,15,0a37.19,37.19,0,0,1,6.49-2.46c.28.23.56.46.86.69A82.7,82.7,0,0,1,49,113c-2.94.8,2.29,3.6,4.49,3.67s4.52.62,7.8-2.32c2.07-1.85,4.37-3.78,5.79-4.95.32.18.64.36,1,.53-1.75,1.89-4.81,5-5.64,5.72-1.26,1-5.22,3.14-.64,3.69s6.62-1,7.31-2.58a53.2,53.2,0,0,1,3-5.08l1.25.42s-2.57,4.64-3.32,5.87-.53,2.09,2,1,2.59-1.67,2.68-2.21a51.82,51.82,0,0,1-1.75,7.55c-.35,1.21-4.89,9.89-8.1,12.18s-10.64,2.7-6.06-1.56,3.11-10.25,3.11-10.25c-2.07-7.75-10.23-6.2-12.58-3.18s-5.65,4.41-6.44,4.1-2-2.45-2-2.45c3.24-1.9.85-3,.85-3-5.17-2.86-8.47-2.19-8.47-2.19,1.27,12.63,3.27,9.14,4.32,8.19s.47-1.75,3.52,2.54,5.46,1.55,9.3-1.68,3.91.85,2.1,2.41-5.88,8.29-4.64,15.72,10,7.78,12.55,6.76,2.22,1.33,2.22,1.49.12,3.11-4,3.72-1.43,3-.61,3.81a3.37,3.37,0,0,1,.73,2.35l-.25,12.41c-1.65-.38-2.73,2.16-3.05,3.05s-2.32,5.78,2.25,7.43,1.72-1.71,1.4-2-1.05-1.14.22-3.27,2.51.54,2.86,1.78,1.94,1.78,2,1.94,2.7,3.2.92,4.63-1.49,4.13,1.62,2,1.75-4.72.83-7.07-.32-2.41.16-2.44,2,1.9,2.06,3.36,1.18,4.64,2.57,1.75,1.46-3.94-.19-5.49-1.93-2.54-1.49-3.4,1.56,1.11,2.7,2.83,3,.79,2.7-2.74-6.38-3.77-9.15-3.62-2.57-.22-2.06-5,2.32-7.12,3.3-7.66a56.84,56.84,0,0,0,10.32-7.36c5-4.48.6-14.42-.48-16.83s.5-3.39,1.15-1.46c3.06,9.06,1.84,9.36,6.16,6.09s12.41-11.08,16-18c2.86-5.5,1.72-13.69,2-14.42s1.35-1.11,2.09-1.35c.52-.16,2.58-1.12,2.17.18a3.06,3.06,0,0,0,.09,2.25c2.13,2.94,2.51,1.24,2.29-.38s.57-2.06,1.3-2.7a2.79,2.79,0,0,1,3.72.43c2,2.17,3,2.15,2.53-.11s-1.33-2.6-3.61-3.05-1.06-.93.44-1.19c2.17-.38,3.84,2.83,4.12,1.44A3.45,3.45,0,0,0,114.88,101.2ZM88.1,60.64c1.71,0,3.09.53,3.09,1.19S89.81,63,88.1,63,85,62.49,85,61.83,86.39,60.64,88.1,60.64Z"/><path class="cls-1" d="M285.34,268.57s19.1-12.69,19.91-13.28,4.76-2.35,4.83.74-.17,7.53-2.8,10.37c-3,3.23-7.44,3.75-11.58,4.06a95.68,95.68,0,0,1-10,0C285.27,270.46,283.38,270.08,285.34,268.57Z"/><path class="cls-1" d="M279.11,203c4.5-1.75,11.92-2.41,18.41,7.22a38.25,38.25,0,0,1,5.31,11c.3,1.16-.92,2-1.69,1.09-.59-.68-1.14-1.29-1.57-1.7-2.37-2.29-4.14-2.79-8.24-.34s-18.79,13-18.79,13a29.72,29.72,0,0,0,1.53-6.24c0-.41-5.1-5.57-9.15-12.61C264.92,214.36,273.43,205.15,279.11,203Z"/><path class="cls-1" d="M264.49,203.5c-.11,5.06.65,6.19,1.77,5.44l5.54-4.52c.35-.28.72-.55,1.09-.81l4.89-3.27a1.65,1.65,0,0,0-.18-3.07l-12.24-4.65c-1.26-.48-2.37-.28-1.84,1.83A53.73,53.73,0,0,1,264.49,203.5Z"/><path class="cls-1" d="M328,180.05l-11-.48h-.41a6.08,6.08,0,0,1-1.32,5.81c-1.83,2.09-4.53,2.93-5.73,2.69s-1.41-1.43-1.34-2.29-.55-1-1.55.66.18,3.29.4,3.94c.43,1.24.31,4.1-2.91,2.8s-4.24-3.38-4.16-3.69-.94.81-2.56-.88a6.48,6.48,0,0,1-2-3.91,8.08,8.08,0,0,1,0-1.68c.12-.54-1.8,0-2.42-2.4a8.1,8.1,0,0,1-.18-1c-2.92.08-18.41.67-24.77,4.77-7.05,4.53-.5,7.55,3.07,8.43s9.31,2.61,10.41,6.11c.24.78,3.37,0,9,1.89,5,1.66,9.5,9.52,17.47,14.09,7.78,4.46,19.52-3.32,19.52-3.32l-10.45-14.17Z"/><path class="cls-1" d="M106.4,194.91c.53-2.11-.57-2.31-1.84-1.83l-12.24,4.65a1.65,1.65,0,0,0-.17,3.07L97,204.07a12.3,12.3,0,0,1,1.09.81l5.54,4.52c1.13.74,1.88-.38,1.77-5.44A54.78,54.78,0,0,1,106.4,194.91Z"/><path class="cls-1" d="M41.88,180.51l11-.48h.42a6.06,6.06,0,0,0,1.31,5.81c1.83,2.08,4.53,2.92,5.73,2.69a1.92,1.92,0,0,0,1.34-2.29c-.08-.85.55-1,1.55.66s-.18,3.29-.4,3.94c-.42,1.24-.31,4.1,2.91,2.8S70,190.26,69.91,190s.94.81,2.57-.89a6.49,6.49,0,0,0,2-3.9,7.41,7.41,0,0,0,0-1.68c-.11-.55,1.8.05,2.42-2.4a5.67,5.67,0,0,0,.18-1c2.93.08,18.41.67,24.77,4.77,7,4.53.5,7.55-3.07,8.43s-9.47,1.64-10.8,7.29c-.19.8-3,.06-8.63,1.95-5,1.66-9.46,8.83-17.49,12.85S42.37,212,42.37,212l10.44-14.17Z"/><path class="cls-1" d="M260.79,74.54a.19.19,0,0,0,.1-.37c-2.93-1.28-10.33-4.72-11.6-7.26-1.59-3.18-.4-4.77,1.72-5.7s.53-3.7-4.9-4.5-4,7.81-2.52,8.81c0,0-5.56-2.58-9.53,1.12s-7.55,3.45-7.15,1.59a3.66,3.66,0,0,1,2.65-2.74c.53,0-2.38-2.16-5.83.62s-1.85,8.08,4.64,8.87,9.27-4.63,10.06-5.42a7.86,7.86,0,0,1,6-1.46A9.57,9.57,0,0,1,248.76,70s-4,.67-4,3.71a8.43,8.43,0,0,0,2.91,6.62c1.59,1.32,0-3.84,1.19-4.77S255.18,74,260.79,74.54Z"/><path class="cls-1" d="M241.19,160.47c.81-5,5.25-2.12,6.89-3.49s-1.91-1.84-3.62-1.23-2.66,1.44-1.57-1.43,4-2.87,6.76-2.66,10.59,6,10.59,6l13.93,1.7s0-1.91-3.21-5.32-4.85-8.68-3.21-17.22,3.19-6,5.88-3a103.63,103.63,0,0,0,12.16,11.1c.95.56-.49,1.81-.49,1.81-1.92,2.32-2.59,10.56-.95,17.25s-1.37,6.69-4.3,4.58S260.31,164,260.31,164c1,4.37-1.78,7.51-4,8s-4-1-1.71-1.71,2.19-3,1.44-4.57-2.53-2.32-3.15-.82-.27.95-3.75,1.84-3.49,2.8-3.49,2.8c.62,4.85-.47,4-2.8,1.23s-.34-5.74,1.92-6.83,3.48-2.12,2.59-2.66a4.3,4.3,0,0,0-4,.68C242.76,162.65,240.37,165.45,241.19,160.47Z"/><path class="cls-1" d="M251.44,105.06c.29,1.4,2-1.81,4.13-1.44,1.5.26,2.73.75.44,1.19s-3.1.8-3.61,3,.51,2.28,2.53.11a2.78,2.78,0,0,1,3.72-.42c.73.63,1.52,1.08,1.3,2.69s.16,3.33,2.29.39a3.15,3.15,0,0,0,.09-2.26c-.41-1.3,1.65-.34,2.17-.18.74.24,1.8.63,2.09,1.36s-.86,8.91,2,14.41c3.59,6.92,11.68,14.74,16,18s3.1,3,6.16-6.1c.65-1.92,2.22-1,1.14,1.46s-5.52,12.35-.47,16.83a56.57,56.57,0,0,0,10.32,7.37c1,.54,2.79,2.82,3.3,7.65s.7,5.21-2.06,5-8.86.09-9.15,3.62,1.56,4.44,2.7,2.73,2.25-3.69,2.7-2.83.16,1.84-1.49,3.4-1.59,2.6-.19,5.49,2.47-.28,2.57-1.74,1.59-3.4,2.06-3.37,1.08.09.16,2.44-2.29,4.94.83,7.08,3.39-.57,1.62-2,.85-4.48.92-4.64,1.65-.7,2-1.94,1.58-3.9,2.85-1.78.54,3,.23,3.27-3.18,3.62,1.39,2,2.58-6.54,2.26-7.43-1.4-3.43-3.05-3l-.25-12.41a3.37,3.37,0,0,1,.73-2.35c.82-.76,3.55-3.21-.61-3.81s-4-3.56-4-3.72-.29-2.5,2.22-1.49,11.31.67,12.55-6.76-2.83-14.16-4.64-15.72-1.75-5.65,2.1-2.41,6.25,6,9.3,1.68,2.48-3.49,3.52-2.54,3.05,4.45,4.32-8.19c0,0-3.3-.67-8.48,2.19,0,0-2.38,1.08.86,3,0,0-1.21,2.13-2,2.45s-4.1-1.08-6.44-4.1S310,116.69,308,124.44c0,0-1.46,6,3.11,10.25s-2.86,3.85-6.06,1.56-7.75-11-8.1-12.18a51.86,51.86,0,0,1-1.75-7.54c.09.53.24,1.16,2.68,2.21s2.7.2,2-1-3.32-5.87-3.32-5.87l1.25-.42a56.83,56.83,0,0,1,3,5.08c.69,1.58,2.73,3.12,7.31,2.58s.62-2.67-.64-3.69c-.83-.68-3.89-3.83-5.64-5.72.33-.17.65-.35,1-.53,1.42,1.17,3.72,3.1,5.79,5,3.28,2.94,5.6,2.39,7.8,2.32s7.43-2.87,4.49-3.66a83,83,0,0,1-14-6.24c.3-.22.58-.46.86-.69a36.58,36.58,0,0,1,6.49,2.47c4.44,2.18,8.67,3.14,15,0s-1.64-2.94-5.81-3.28c-3.11-.26-8.91-2.36-11.64-3.41.29-.38.56-.77.81-1.15,2.77,1.31,12.48,3.11,15.75,3.46,3.82.41,8-3.75,11.27-8s-1.57-1.85-8.2,0c-5.59,1.57-14.08.55-16.58.19.21-.56.41-1.13.57-1.69a101.34,101.34,0,0,0,18.81-1.38c4.65-.88,8.54-5.32,11.13-11.74s-5,.41-12.87,4.57a44.9,44.9,0,0,1-16.25,4.49c.05-.4.08-.8.11-1.19a71.28,71.28,0,0,0,17.33-5.82c10.18-5.06,11.89-9.84,12.91-12s4.92-12.91-2.25-6.8c-5.67,4.84-21.6,16.24-28,20.8,0-.3-.05-.6-.08-.89l28.52-23.9a1.44,1.44,0,0,0,.52-1.24L345.48,45a.73.73,0,0,0-1.27-.43L314.47,77.21l-6,5.67a31.83,31.83,0,0,1,.75,5.26c.48,4.57-1.09,9.15-6.08,13.52a9.57,9.57,0,0,1-8.41,2.52c0-.4.09-.81.15-1.22A27.33,27.33,0,0,1,296,97.49c.89-2.59,6.76-6.28,7.24-17.62s-6.75-15.13-12.94-19.45l4.9-3.76s-11.65.88-14,0-7.93-.22-7.29,2.44c.16.63-.05.66-.05.66a24.16,24.16,0,0,0-9.88.71c-4.76,1.54-2.91,9-2.91,9s1.19,4.14,3.05-.84c0,0-.45-1.07.21-1.14s1.88,1,2.42-1,4.57.13,4.57.13-.1,3.27-3.18,3.72-3,2.31,1.62,1.68c0,0,3.08-1.27,1,1.43,0,0-1.87.44-1.91,1.81s-2.12.82-2.47.44-5.66-.57-1.18,3.59,7.3-1.71,8.38-3.49,3.12-4.07,5.5-4.38,7.11,2.69,6.63-1.85c0,0,6.67,2.93,3.85,9.15S279,92,274.91,94.37s-8.39,6.92-8.39,7.71,7,1.8,8.36,1.8,1.26-6.75,5.87-6.92,3.71,1.78.57,1.67c-5.91-.2-2.23,6.57-5.59,6.54s-9.11-1.91-10.83-2.55-6.44-7.55-9.68-5.39-4,4-1.87,3.47a12.33,12.33,0,0,1,3.36-.55c.7.11.77.77-1.74.8A3.45,3.45,0,0,0,251.44,105.06Zm33.4-43.49c0,.66-1.38,1.19-3.09,1.19s-3.09-.53-3.09-1.19,1.38-1.19,3.09-1.19S284.84,60.91,284.84,61.57Z"/><path class="cls-1" d="M144,115h6v48.07h7.25v11.31H144Z"/><path class="cls-1" d="M162.17,150.65,154.78,115h6.52l3.89,20.39L169.05,115h6.52l-7.39,35.61v23.77h-6Z"/><path class="cls-1" d="M175.46,167l2-10.33c2.06,4,4,5.88,5.82,5.88,1.23,0,2-1.52,2-4.45,0-3.39-2.17-5.17-4.33-8-2.39-3.11-4.95-8.19-4.95-18.33s3.16-17.72,7.38-17.72c2.53,0,5.22,3.21,7.18,8.72l-2,9.89c-2.19-4.46-3.69-5.79-5.09-5.79-1,0-1.82,1.51-1.82,4.18s1.33,4.45,2.82,6.32c2.69,3.39,6.48,7.39,6.48,19.5,0,11.48-3.45,18.52-7.38,18.52C180.45,175.4,177.46,172.28,175.46,167Z"/><path class="cls-1" d="M193.35,144.77c0-17.71,4.19-30.71,9.84-30.71s9.88,13,9.88,30.71-4.23,30.63-9.88,30.63S193.35,162.49,193.35,144.77Zm13.63,0c0-12-1.79-17.71-3.79-17.71s-3.75,5.69-3.75,17.71,1.76,17.72,3.75,17.72S207,156.79,207,144.77Z"/><path class="cls-1" d="M216.42,115h6v48.07h7.25v11.31H216.42Z"/><rect class="cls-1" x="142.45" y="138.25" width="9.01" height="9.01" transform="translate(-57.9 145.73) rotate(-45)"/><rect class="cls-1" x="215.34" y="139.67" width="9.01" height="9.01" transform="translate(-37.55 197.68) rotate(-45)"/><path class="cls-1" d="M109,114.47a7.69,7.69,0,0,1-2.27-1.61,3.66,3.66,0,0,1-1.13-2.33,1.76,1.76,0,0,0-.15-.55c-2.16,7.8-.1,18.71,6,30.39a65.83,65.83,0,0,0,5.34,8.56h5a59.38,59.38,0,0,1-6.72-10.15C110.54,130.09,108.51,121.27,109,114.47Z"/><path class="cls-1" d="M118.11,135.79c-5.23-10.14-6-20.22-3.45-26.23-.73-.61-1.17-.83-1.71-.71-2.6,6.5-1.27,17.52,4.27,28.3a53,53,0,0,0,8.14,11.78h2.51A47.75,47.75,0,0,1,118.11,135.79Z"/><path class="cls-1" d="M165.74,95.69c-11.09-5.85-16.09-7.09-24.88-7.09a28.92,28.92,0,0,0-21.93,10.09,1.57,1.57,0,0,1,0,2.09s.06-.06.3.28c4.94-6.36,12.64-11,21.42-11,8.18,0,13.51,1.31,23.84,6.74a60.26,60.26,0,0,1,11.59,8.39h2.79A57.74,57.74,0,0,0,165.74,95.69Z"/><path class="cls-1" d="M260.63,114.47a7.69,7.69,0,0,0,2.27-1.61,3.72,3.72,0,0,0,1.13-2.33,1.76,1.76,0,0,1,.15-.55c2.15,7.8.09,18.71-6,30.39a65.87,65.87,0,0,1-5.35,8.56h-5a58.22,58.22,0,0,0,6.72-10.15C259.09,130.09,261.12,121.27,260.63,114.47Z"/><path class="cls-1" d="M229.72,82.87c-10.58,0-16.64,1.74-30,8.64a71.78,71.78,0,0,0-14.91,10.17,72,72,0,0,0-14.9-10.17c-13.36-6.9-19.42-8.64-30-8.64a35.49,35.49,0,0,0-26.36,11.54,3.3,3.3,0,0,1,.49.09,8.32,8.32,0,0,1,3.29,2.21A32.2,32.2,0,0,1,140.89,86.6c9.6,0,15.1,1.58,27.22,7.84a63.77,63.77,0,0,1,15.17,10.75l1.53,1.65,1.54-1.65a63.77,63.77,0,0,1,15.17-10.75c12.12-6.26,17.62-7.84,27.22-7.84A32.22,32.22,0,0,1,252.3,96.71a8.32,8.32,0,0,1,3.29-2.21,3.41,3.41,0,0,1,.48-.09A35.47,35.47,0,0,0,229.72,82.87Z"/><path class="cls-1" d="M251.52,135.79c5.22-10.14,6-20.22,3.45-26.23.73-.61,1.17-.83,1.7-.71,2.61,6.5,1.28,17.52-4.26,28.3a53,53,0,0,1-8.14,11.78h-2.52A47.77,47.77,0,0,0,251.52,135.79Z"/><path class="cls-1" d="M203.89,95.69C215,89.84,220,88.6,228.77,88.6a28.9,28.9,0,0,1,21.92,10.09,1.58,1.58,0,0,0,0,2.09s-.05-.06-.29.28C245.49,94.7,237.79,90,229,90c-8.19,0-13.52,1.31-23.84,6.74a60,60,0,0,0-11.59,8.39h-2.8A57.81,57.81,0,0,1,203.89,95.69Z"/><path class="cls-1" d="M300.47,228.3c-5-10.54-17.05,1.34-28,9-1.72,1.2-3.92,2.62-6.47,4.18A45.83,45.83,0,0,0,271,228.32c.07-.42-4.92-6.29-9.51-15.25-4.25-8.31-7.83-16.73-11.08-24.3a53.83,53.83,0,0,1-3.48-13.13l-3.78-2c.21,4.54,1.9,12.15,5.6,21.33s5.07,11.7,8,18.93c5.82,14.38,2.28,27.29-6.25,36.44l-3.65,1.94a36.93,36.93,0,0,0,8.72-13.13c2.41-5.57,2.44-16.37-2-28-.47-1.23-1-2.42-1.49-3.58h0l0,0c-.58-1.27-1.18-2.5-1.81-3.67-5.56-12.47-9.33-31.09-9.33-31.09l-2.23-1.8a93.28,93.28,0,0,0,4.47,19.94,155,155,0,0,1,6,20.17s.93,7.63.52,11.69a45,45,0,0,1-5.89,19.08c-4.15,6.55-8.22,10.88-16.88,15.73-10.71,6-25.16,8.26-41.27,7.71-17.39-.6-32.06-3.35-43.33-9-13-7.44-22.35-22.54-20.44-41.39a33.33,33.33,0,0,1,1.18-6c.93-4,5.26-16.12,6.68-20.26a59.22,59.22,0,0,0,2.38-19.16l-2.35,3s-1.48,15.56-7.38,27.84c-1.63,3.58-3.2,6.89-4.71,10.83-4.46,11.66-4.43,22.46-2,28,1.76,4.07,3.36,8,10.54,14.95l0,0c-1.83-.88-3-1.5-3-1.5l-1.37-.73c-9.63-9.2-14-22.78-7.79-38,2.93-7.23,4.26-9.63,8-18.93s5.4-17,5.61-21.54l-3.79,2.21a54.11,54.11,0,0,1-3.49,13.13c-3.24,7.57-6.82,16-11.08,24.3-4.58,9-9.58,14.83-9.51,15.25A46.74,46.74,0,0,0,105,242.06c-7.17-4.68-12.75-8.91-18.25-12.61-9.38-6.32-13.21-6.13-17-1.54s-8.62,21.83-8.62,21.83c14,7.86,37.56,24.57,55.34,31.79,19.35,7.85,35.82,11.68,46.54,12.26l.92,0,12.56,11.63h6.41L170.7,294.22l3.56.17,11.79,10.91,9.7-10.48,3.2-.06L189,305.47h6.39l10.17-11c19-1.13,30-5,45.08-11.42,17.33-7.4,32.93-15.7,45.38-25.66,4.45-3.55,12.26-8.61,12.26-8.61A123.85,123.85,0,0,0,300.47,228.3ZM84.58,244.2a.68.68,0,0,1-1,.21l-.11-.08a.68.68,0,0,1-.33-.89.41.41,0,0,1,.07-.11.71.71,0,0,0-.08-1,.65.65,0,0,0-.15-.1.78.78,0,0,0-1.1.07.62.62,0,0,0-.11.17c-.4.54-.41,1.13,0,2.43.55,1.66.51,2.51-.15,3.44-.86,1.23-2.11,1.42-3.54.45s-1.58-2.06-.74-3.17a.74.74,0,0,1,1-.15l.06.05a.68.68,0,0,1,.29.91l0,.09a.75.75,0,0,0,0,1.07.69.69,0,0,0,.22.16.82.82,0,0,0,1.14,0,.9.9,0,0,0,.14-.2c.45-.62.44-1.21,0-2.51-.54-1.67-.46-2.54.17-3.38a2.27,2.27,0,0,1,3.15-.64l.27.22C85.12,242.1,85.26,243.28,84.58,244.2Zm8,4.38-.08-.06L91.6,248q-1.95,3-3.89,6.09c-.25.39-.66.45-1.13.16s-.64-.68-.39-1.1q2-3,4-6.05l-.9-.57a.62.62,0,0,1-.35-.81.39.39,0,0,1,.08-.14.66.66,0,0,1,.91-.21l.09.07c1.06.66,2.13,1.32,3.2,2a.62.62,0,0,1,.36.8.83.83,0,0,1-.07.13A.68.68,0,0,1,92.59,248.58Zm8.36,5.61-.28.5a1.71,1.71,0,0,1-1.83,1.07c.62.59.54,1.31,0,2.22-.23.41-.45.83-.68,1.25a1.28,1.28,0,0,0-.2.5,1,1,0,0,1-.12.33c-.15.28-.49.29-.94.05-.62-.32-.76-.74-.36-1.46l.85-1.53c.41-.74.29-1.12-.37-1.48l-.51-.28c-.55.95-1.09,1.9-1.63,2.85a.74.74,0,0,1-1,.29l-.1-.07c-.48-.31-.62-.66-.39-1.05,1.32-2.25,2.63-4.49,4-6.73a.71.71,0,0,1,1-.3l.11.07,1.39.77C101.33,252,101.63,252.92,101,254.19Zm8.19,2.65c-.67,2.42-1.32,4.86-1.94,7.3a.62.62,0,0,1-.07.19.69.69,0,0,1-.91.38l-.09,0a.79.79,0,0,1-.5-1h0c.11-.39.23-.78.34-1.17l-1.8-.86-.72,1a.76.76,0,0,1-1,.24.65.65,0,0,1-.42-.82.36.36,0,0,1,0-.09,1.43,1.43,0,0,1,.14-.2l4.66-6a1.21,1.21,0,0,1,1.57-.34A1.16,1.16,0,0,1,109.14,256.84Zm9.23,3.74a.66.66,0,0,1-.8.48l-.19-.08-1-.39q-1.44,3.3-2.83,6.61c-.18.42-.56.54-1.06.33a.65.65,0,0,1-.39-1c1-2.19,1.92-4.39,2.89-6.58l-1-.41c-.43-.18-.58-.5-.4-.88a.64.64,0,0,1,.83-.36l.1.05c1.12.48,2.24.95,3.37,1.41A.66.66,0,0,1,118.37,260.58Zm8.68,3.25a.64.64,0,0,0,0,.07q-1.32,3.69-2.63,7.39a.76.76,0,0,1-1,.41h0a.74.74,0,0,1-.58-.87.5.5,0,0,1,0-.13c.39-1.09.79-2.17,1.19-3.26l-1.64-.59c-.41,1.08-.82,2.16-1.22,3.25a.75.75,0,0,1-1,.38h0a.74.74,0,0,1-.59-.87.06.06,0,0,1,0,0q1.41-3.66,2.83-7.32a.75.75,0,0,1,1-.4h0a.71.71,0,0,1,.5.87.64.64,0,0,0,0,.07l-1.08,2.88,1.62.59c.36-1,.71-1.93,1.06-2.89a.73.73,0,0,1,1-.43l0,0A.73.73,0,0,1,127.05,263.83Zm8.69,4.34-.16.54c-.26.9-.75,1.38-1.51,1.43.71.44.77,1.16.48,2.15l-.4,1.36a1.6,1.6,0,0,0-.09.53,2,2,0,0,1,0,.35c-.09.3-.41.39-.89.25-.65-.19-.86-.57-.62-1.35.16-.56.33-1.12.5-1.67.25-.81.06-1.15-.64-1.36l-.54-.17c-.32,1-.65,2.08-1,3.12a.7.7,0,0,1-1,.44c-.5-.16-.77-.47-.63-.91.8-2.46,1.59-4.92,2.4-7.38a.7.7,0,0,1,.85-.51.47.47,0,0,1,.15.06l1.47.46C135.67,266,136.11,266.82,135.74,268.17Zm9.24,2a2.33,2.33,0,0,1-.1.44l-1.11,4.66a2.14,2.14,0,0,1-2.44,1.79,2.85,2.85,0,0,1-.5-.14c-1.57-.41-2.22-1.44-1.84-2.83l1.23-4.62a2.14,2.14,0,0,1,2.49-1.74,1.82,1.82,0,0,1,.4.11A2.11,2.11,0,0,1,145,270.2Zm9.12.71a1.4,1.4,0,0,1-.13.34q-1.18,2-2.38,3.94c-.21,1.06-.41,2.12-.62,3.18a.83.83,0,0,1-1.05.49.82.82,0,0,1-.54-.8h.05c.21-1.06.42-2.12.64-3.18-.25-1.48-.47-3-.69-4.44a.9.9,0,0,1,0-.4.66.66,0,0,1,.75-.56l.08,0c.49.1.61.34.68.87.11.94.24,1.89.36,2.83.48-.84,1-1.68,1.43-2.53.24-.43.47-.59.9-.51a.59.59,0,0,1,.53.65A.31.31,0,0,1,154.1,270.91ZM169,274.49v.36c-.09.93-.46,1.48-1.18,1.67a1.73,1.73,0,0,1,1,2,2.59,2.59,0,0,1-.08.78c-.13,1.4-1,2.07-2.65,1.9L164.3,281a.75.75,0,0,1-.77-.73v0q.47-3.81.94-7.61a.71.71,0,0,1,.78-.63h.07l1.55.17C168.46,272.34,169.08,273.09,169,274.49Zm9.32,1.2a1.66,1.66,0,0,1-1.11,1.74c.78.26,1,.94,1,2l-.06,1.42a1.57,1.57,0,0,0,0,.53,1,1,0,0,1,0,.35c0,.32-.3.47-.79.45-.66,0-.95-.35-.91-1.16l.09-1.74c0-.85-.22-1.13-.94-1.17H175c-.07,1.09-.14,2.18-.2,3.26,0,.46-.34.7-.85.66a.71.71,0,0,1-.75-.8q.24-3.87.53-7.73a.68.68,0,0,1,.7-.68h.12l1.52.1c1.59.08,2.25.8,2.19,2.2Zm7.87,1.21a.69.69,0,0,1,.72.64h0a.68.68,0,0,1-.68.66H184.6V281h2a.65.65,0,0,1,0,1.3h-3a.74.74,0,0,1-.72-.73c0-2.56.09-5.12.14-7.67a.71.71,0,0,1,.73-.71h2.87a.65.65,0,0,1,0,1.3h-2v2.41Zm12.64-3.37c-.11,2.54-.22,5.08-.36,7.61a1.09,1.09,0,0,1-2.15.17h0c-.32-1.8-.64-3.6-.94-5.4-.12,1.8-.24,3.61-.37,5.42a1,1,0,0,1-1,1h-.15a1,1,0,0,1-1.24-.68.83.83,0,0,1,0-.31c-.38-2.46-.74-4.91-1.1-7.35a.67.67,0,0,1,0-.2.71.71,0,0,1,.67-.75h0a.65.65,0,0,1,.73.55.13.13,0,0,1,0,.06c.31,2.16.62,4.33.94,6.48.15-2.13.28-4.26.41-6.39a1,1,0,0,1,1.87-.12v0c.34,2.11.7,4.21,1.06,6.32.1-2.2.19-4.41.27-6.61a.67.67,0,0,1,.77-.55.68.68,0,0,1,.55.55Zm6,8a.81.81,0,0,1-.84-.69l-.75-7.79a.78.78,0,0,1,1.54-.15c.28,2.59.55,5.19.82,7.78A.82.82,0,0,1,204.77,281.52Zm10.28-1.31a.74.74,0,0,1-.25.05,1,1,0,0,1-1.14-.69c-.86-1.86-1.71-3.72-2.54-5.6.28,2,.57,4,.85,6,.06.4-.18.67-.63.73a.67.67,0,0,1-.83-.53q-.51-3.75-1-7.5a1,1,0,0,1,.79-1.17h.08a1.12,1.12,0,0,1,1.27.78c.66,1.46,1.33,2.91,2,4.37-.24-1.62-.49-3.24-.74-4.86a.61.61,0,0,1,.48-.72h.1a.62.62,0,0,1,.77.42s0,.06,0,.1l1.23,7.69A.74.74,0,0,1,215.05,280.21Zm7.65-1.42a2.42,2.42,0,0,1-2.65-1.78l0,0c-.29-1.57-.59-3.14-.89-4.7a2.35,2.35,0,0,1,4.6-.91v.18a.75.75,0,0,1-1.46.3.52.52,0,0,0,0-.27c-.14-.64-.49-.82-1-.72s-.75.4-.62,1l1,4.88c.13.64.49.81,1,.71a.75.75,0,0,0,.69-.81,1.29,1.29,0,0,0,0-.19l-.36-1.75h-.16a.65.65,0,0,1-.36-1.25l.1,0,.85-.17a.72.72,0,0,1,.9.47s0,0,0,.06l.48,2.22A2.42,2.42,0,0,1,222.7,278.79Zm15.48-3.6a2.39,2.39,0,0,1-2.83-1.57h0l-1.32-4.72a2.06,2.06,0,0,1,1.18-2.67,2.84,2.84,0,0,1,3.19,1,2.91,2.91,0,0,1,.12.39,1.54,1.54,0,0,0,.1.35.67.67,0,0,1-.44.84l-.08,0a.69.69,0,0,1-.9-.38.14.14,0,0,1,0-.06,1.41,1.41,0,0,0-.13-.43.73.73,0,0,0-.81-.64.59.59,0,0,0-.19.05.71.71,0,0,0-.57.84.75.75,0,0,0,.05.16c.47,1.63.95,3.26,1.41,4.89a.74.74,0,0,0,.84.62l.16,0a.73.73,0,0,0,.59-.85.83.83,0,0,0,0-.15c-.08-.25-.15-.5-.23-.76a.69.69,0,0,1,.48-.85h.06a.68.68,0,0,1,.9.34l0,.09.21.66A2.4,2.4,0,0,1,238.18,275.19Zm9.33-3c-1.59.54-2.6,0-3.06-1.39l-1.53-4.54a2.12,2.12,0,0,1,1.09-2.79,1.73,1.73,0,0,1,.44-.14,2.16,2.16,0,0,1,2.88,1.05,1.66,1.66,0,0,1,.12.31l1.65,4.5C249.61,270.6,249.1,271.69,247.51,272.23Zm12.73-5a.68.68,0,0,1-1-.31c-.85-2-1.69-3.91-2.55-5.87.52,2.1,1,4.21,1.52,6.33a.69.69,0,0,1-.48.86h0a.73.73,0,0,1-1-.25v0c-1.17-1.84-2.32-3.69-3.47-5.54q1.23,3,2.44,6c.15.38,0,.68-.45.85s-.71.06-.85-.32l-2.79-7a1,1,0,0,1,.35-1.37,1,1,0,0,1,.28-.11,1.14,1.14,0,0,1,1.55.44v0l3,4.86q-.69-2.79-1.38-5.55a1,1,0,0,1,.67-1.34l.06,0a1.08,1.08,0,0,1,1.48.42.61.61,0,0,1,.07.14q1.53,3.42,3,6.84C260.87,266.73,260.69,267.07,260.24,267.27Zm6.09-6.81-.7.33,1.35,2.77c.2.41,0,.78-.45,1a.72.72,0,0,1-1-.2.83.83,0,0,1-.07-.13c-1.12-2.34-2.25-4.68-3.37-7a.68.68,0,0,1,.24-.93.51.51,0,0,1,.17-.07l1.41-.66a2.14,2.14,0,0,1,3,.58,2.1,2.1,0,0,1,.22.42l.42.8C268.19,258.67,267.83,259.75,266.33,260.46Zm11.95-1.91-.13.07a.84.84,0,0,1-1.12-.17c-.26-.32-.51-.64-.77-.95l-1.77.95.41,1.14a.72.72,0,0,1-.32,1l-.07,0a.71.71,0,0,1-1-.21l0-.08a1,1,0,0,1-.08-.22q-1.12-3.6-2.32-7.19a1.17,1.17,0,0,1,.64-1.45,1.21,1.21,0,0,1,1.59.26c1.65,1.93,3.32,3.84,5,5.75a.66.66,0,0,1,.12.17A.67.67,0,0,1,278.28,258.55Zm8.7-5.06a1,1,0,0,1-1.38-.15c-1.6-1.34-3.19-2.69-4.77-4.07l3.3,5.21c.22.34.1.69-.31.94a.72.72,0,0,1-1.05-.16q-2-3.24-4-6.48a1,1,0,0,1,.26-1.39l.09,0a1.23,1.23,0,0,1,1.57.17c1.22,1.07,2.46,2.13,3.7,3.18l-2.72-4.16a.59.59,0,0,1,.12-.84.39.39,0,0,1,.14-.08.65.65,0,0,1,.93.06.22.22,0,0,1,.07.09c1.46,2.18,2.92,4.36,4.36,6.55C287.64,252.83,287.44,253.21,287,253.49Zm7.41-4.82-.07,0a.81.81,0,0,1-1.13,0l-.06-.07L291.21,246c-1.3-.84-2.6-1.68-3.88-2.53a1.18,1.18,0,0,1-.3-.29.67.67,0,0,1,.12-.94l.1-.06c.43-.29.71-.22,1.16.09.8.56,1.61,1.11,2.42,1.66-.28-.94-.57-1.87-.86-2.8-.15-.48-.1-.76.28-1a.66.66,0,0,1,.93,0l.07.09a1.35,1.35,0,0,1,.17.34c.41,1.48.82,3,1.2,4.47l2,2.61A.76.76,0,0,1,294.39,248.67Z"/><path class="cls-1" d="M247.61,269.86l0,0L246,265.16c-.22-.62-.6-.74-1.08-.58s-.69.5-.48,1.11c.54,1.57,1.09,3.13,1.63,4.7a.78.78,0,0,0,.89.64l.21-.06a.76.76,0,0,0,.55-.92A.62.62,0,0,0,247.61,269.86Z"/><path class="cls-1" d="M142.79,269.13c-.49-.12-.85,0-1,.67-.42,1.61-.84,3.21-1.24,4.81a.85.85,0,1,0,1.59.58.48.48,0,0,0,.05-.17h0c.39-1.61.79-3.22,1.18-4.83C143.52,269.56,143.28,269.25,142.79,269.13Z"/><path class="cls-1" d="M166.59,273.47l-.75-.08-.27,2.39.71.05c.59.07,1-.13,1-.85v-.51C167.35,273.83,167.14,273.47,166.59,273.47Z"/><path class="cls-1" d="M166.23,277.14l-.71-.08c-.1.92-.21,1.85-.31,2.78l.92.1c.54.06.85-.14.92-.81a2.69,2.69,0,0,1,.08-.79C167.22,277.5,166.94,277.21,166.23,277.14Z"/><path class="cls-1" d="M121.35,102.21a21.15,21.15,0,0,0-2.67,5.28,4.36,4.36,0,0,1,.21.64c.14.74-.22,2.48-1.13,2.6h-.14c-.14.48-.27,1-.4,1.48-1.66,10.26,2.58,22.9,13.15,32.9-4.87-8.9-7-18.88-5.79-25.08,3-15,20-23.71,36.83-19.72a35,35,0,0,1,3.77,1.13C149.58,90.27,130.16,90.53,121.35,102.21Z"/><path class="cls-1" d="M248.12,102.21a21.15,21.15,0,0,1,2.67,5.28,3.4,3.4,0,0,0-.2.64c-.15.74.22,2.48,1.13,2.6h.14c.13.48.27,1,.4,1.48,1.66,10.26-2.58,22.9-13.15,32.9,4.87-8.9,7-18.88,5.78-25.08-3-15-20-23.71-36.83-19.72a35.55,35.55,0,0,0-3.76,1.13C219.89,90.27,239.32,90.53,248.12,102.21Z"/><path class="cls-1" d="M214.05,75.48a30.06,30.06,0,0,0-5.16-7.73s4.81-3.73,6.82-6.84A6,6,0,0,1,213,59.16s4.18-7.88,5.1-9.83l-2.18.48s2.65-5.67,2.81-10.2a97.64,97.64,0,0,0-9.37,5s-.84-1.09-.55-1.89-7,7.95-8.59,8.24c0,0-2.94-.57-.64-4.15A33.45,33.45,0,0,0,203.44,36s-3.05-.75-7.05,2.4c0,0-3.08-2.74-2.52-9.1a4.32,4.32,0,0,0-2.46,1.61s-6.55-11.95-6.77-16.06c-.13,4.11-6.36,16-6.36,16a4.32,4.32,0,0,0-2.5-1.55c.7,6.34-2.32,9.15-2.32,9.15-4.07-3.06-7.1-2.25-7.1-2.25,4.5,12.62,3.57,14.91,3.57,14.91-1.62-.25-9.08-8.84-8.77-8.05s-.51,1.91-.51,1.91a97.82,97.82,0,0,0-9.47-4.78c.25,4.52,3,10.13,3,10.13L152,49.87c1,1.92,5.32,9.71,5.32,9.71a6,6,0,0,1-2.69,1.81c2.07,3.07,7,6.7,7,6.7a29.89,29.89,0,0,0-5,7.83c4.84,2.21,14.49-2.15,14.49-2.15l-1,4.51,1.54-.91A48,48,0,0,1,182,74.51a1.79,1.79,0,0,1,2,1.8l0,20.17c0,3.2,2.19,3.54,2.34,0l.38-20.12a1.79,1.79,0,0,1,2.08-1.73,33,33,0,0,1,11.28,3.92l-1-4.22S209.26,77.79,214.05,75.48Zm-16.47-5c-1.88.23-8.75-1-9.58.33s-2.65,1.74-3.5.71c-.5-.61.85-1.18-8-.8s-4.13-1.67.51-1.56c5.83.13-.7-1.85-3.67-3.76s-9.72-7.64-11.47-11.94.78-2.24,2.45.4A24,24,0,0,0,169.37,59c10.63,8.14,14.92,9,14.92,9,1.21,0,.35-3.88.15-8s-.59-5-1.27-5.83a48.79,48.79,0,0,0-3.73-4c-10.93-12-5.56-8.83,2.59-1.22,2.81,2.63,2.91,3.27,2.82-2,0-2.48.08-5.37.19-10.4s1.91-1.32,1.88.39.6,8.09.2,12.62c-.29,3.26,2,.81,6.74-4s6.31-3.68,1,2-7,6.24-6.91,12c.21,8.63.8,7.46.8,7.46a69.8,69.8,0,0,0,17.45-11.81c4.24-4.18,4.57-2.9,1.35,1.61a31.13,31.13,0,0,1-10.19,8.57c-4,2.09-5.8,3-.24,3.06S201.43,70,197.58,70.45Z"/><path class="cls-1" d="M154.18,251.85q-4.5-1.4-8.85-3.22V214.57h7.56c6,0,9,3.54,8.94,10.32,0,3.19-1.35,5.84-2.9,7,2.5,1.92,4.46,6,4.43,10.44C163.3,249.58,160.1,253.72,154.18,251.85Zm-1.36-32.1-2.88-.13v8.9l2.86.39c2.91.37,4.5-.84,4.52-4.33S155.73,219.89,152.82,219.75Zm1,14.59c-1.6-.27-2.39-.41-4-.72v11.7c1.57.49,2.36.72,4,1.16,3.2.88,5-.83,5-4.94s-1.69-6.66-4.91-7.2Z"/><path class="cls-1" d="M168.32,255.29q.17-20.31.29-40.72H183V221c-3.89,0-5.84-.05-9.73-.12,0,3.67,0,5.51-.06,9.19,3.45.16,5.18.22,8.63.28v6.45c-3.47-.08-5.2-.16-8.65-.4,0,5.29,0,7.94-.08,13.23,4.09.44,6.15.58,10.26.7v6.46A92.13,92.13,0,0,1,168.32,255.29Z"/><path class="cls-1" d="M188.1,256.87v-42.3h14.31v6.29c-3.9.09-5.84.12-9.74.16v9.34c3.45-.07,5.18-.13,8.62-.31v6.31c-3.45.26-5.18.35-8.65.45v13.45c4.11-.19,6.17-.37,10.25-.9v6.28A91.58,91.58,0,0,1,188.1,256.87Z"/><path class="cls-1" d="M223,250.64c-2.76-3.83-4.17-6-7-10.54-1.46.27-2.19.4-3.65.63,0,5.22.07,7.83.11,13.06-1.85.45-2.78.65-4.64,1q-.15-20.11-.31-40.24h8.62c6.09,0,9.6,5.31,9.62,11.71,0,4.68-1.77,9.08-5.13,11.72a118.75,118.75,0,0,0,7.61,10.63C226.18,249.49,225.13,249.89,223,250.64Zm-7.24-30.44-3.57.13.12,14.65c1.43-.18,2.14-.28,3.56-.48,3-.43,5.19-3,5.16-7.65S218.75,220.08,215.78,220.2Z"/><path class="cls-2" d="M145.7,193.31v12.36H144V193.31h-2.62v-2.23h6.89v2.23Z"/><path class="cls-2" d="M154.76,205.67v-6.85h-3.47v6.85h-1.67V191.08h1.67v5.47h3.47v-5.47h1.67v14.59Z"/><path class="cls-2" d="M158.55,205.67V191.08h5.19v2.23h-3.51v3.24h3.1v2.23h-3.1v4.66h3.66v2.23Z"/><path class="cls-2" d="M172.63,205.91c-2.41,0-4-3.37-4-7.52s1.58-7.55,4-7.55c1.33,0,2.35.89,3,2.54l-.91,1.35c-.49-1-1.08-1.62-1.9-1.62-1.31,0-2.44,1.93-2.44,5.28s1.13,5.25,2.44,5.25c.82,0,1.41-.64,1.9-1.6l.91,1.34C175,205,174,205.91,172.63,205.91Z"/><path class="cls-2" d="M177.13,205.67V191.08h1.68v12.36h3.42v2.23Z"/><path class="cls-2" d="M183.51,205.67V191.08h5.19v2.23h-3.51v3.24h3.1v2.23h-3.1v4.66h3.66v2.23Z"/><path class="cls-2" d="M195.55,205.67V201h-3.32v4.7h-1.68v-9c0-3.68,1.46-5.82,3.34-5.82s3.33,2.14,3.33,5.82v9Zm0-9.08c0-2.3-.71-3.48-1.66-3.48s-1.66,1.18-1.66,3.48v2.15h3.32Z"/><path class="cls-2" d="M204.88,205.67l-4.07-9.54v9.54h-1.47V191.08h1.09l4.07,9.54v-9.54H206v14.59Z"/><path class="cls-2" d="M208.09,205.67V191.08h5.19v2.23h-3.52v3.24h3.11v2.23h-3.11v4.66h3.66v2.23Z"/><path class="cls-2" d="M220.67,205.67l-2.54-4.85h-1.32v4.85h-1.68V191.08h3.12c2.2,0,3.46,2.21,3.46,4.88,0,1.95-.66,3.63-1.89,4.4l2.8,5.31Zm-2.57-12.45h-1.29v5.45h1.29c1.07,0,1.89-.87,1.89-2.71S219.17,193.22,218.1,193.22Z"/><path class="cls-2" d="M140.33,307.06c2.54.95,5.08-1.85,1.1-3.55a7.66,7.66,0,0,0-4.22.29A4.91,4.91,0,0,0,140.33,307.06Z"/><path class="cls-2" d="M147,307a1,1,0,0,0,1.62-1.27c-.92-1.76-4-5-14-8.62,0,0-5.46-1.91.42,1.22s10.11,5.56,11.3,7.76A3.37,3.37,0,0,0,147,307Z"/><line x1="135.36" y1="303.05" x2="123.13" y2="297.57"/><path class="cls-2" d="M135,304l-12-6.08a.34.34,0,0,1-.15-.46.33.33,0,0,1,.42-.16l12.51,4.87a1,1,0,0,1,.57,1.3,1,1,0,0,1-1.29.57Z"/><path class="cls-2" d="M145.86,308.31a1,1,0,0,1,.2,2.05c-1.92.55-6.35.55-15.92-4.21,0,0-5.16-2.63,1.17-.54s11,3.49,13.41,2.83A3.55,3.55,0,0,1,145.86,308.31Z"/><line x1="138.01" y1="301.89" x2="126.65" y2="296.27"/><path class="cls-2" d="M137.57,302.79l-11.07-6.21a.35.35,0,0,1-.13-.47.34.34,0,0,1,.43-.14l11.65,5a1,1,0,1,1-.79,1.83Z"/><line x1="135.78" y1="305.69" x2="123.93" y2="300.72"/><path class="cls-2" d="M135.39,306.62,123.8,301a.34.34,0,0,1-.16-.45.33.33,0,0,1,.42-.17l12.1,4.36a1,1,0,0,1-.67,1.89Z"/><path class="cls-2" d="M158.56,309.54l-4-3.77s-1.54-1.15-.34-2.2,2.2.31,2.57.81,3.09,3.53,3.49,4.16a1.2,1.2,0,0,1,0,1.62C159.82,310.54,158.56,309.54,158.56,309.54Z"/><path class="cls-2" d="M153,308.27l-4-3.77s-1.53-1.15-.33-2.2,2.2.31,2.57.8,3.08,3.54,3.49,4.17a1.2,1.2,0,0,1,0,1.62C154.23,309.27,153,308.27,153,308.27Z"/><path class="cls-2" d="M162.14,304.76a2.26,2.26,0,0,0-2,.14c-1,.63,0,1.69.49,2.21s1.07,1,1.07,1l1.62-1.25.26-.24A8.65,8.65,0,0,0,162.14,304.76Z"/><path class="cls-2" d="M157.39,311.11,152,312.45s-1.9.25-1.36,1.75,2.07.81,2.63.55,4.42-1.58,5.09-1.94.94-.88.76-1.42S157.39,311.11,157.39,311.11Z"/><path class="cls-2" d="M151.89,309.5l-5.35,1.34s-1.91.25-1.37,1.76,2.08.8,2.64.54,4.42-1.58,5.08-1.94,1-.88.77-1.42S151.89,309.5,151.89,309.5Z"/><path class="cls-2" d="M177.67,312.9a.74.74,0,0,0,1.08,0l1.12-1.29a.74.74,0,0,0,0-1l-2.27-2.17c-.58,1.08-1.12,2-1.63,2.88Z"/><path class="cls-2" d="M182.16,311.46l1.22,1.17a.75.75,0,0,0,1.08-.05l1.5-1.72-1-1.94s-.2-.48-.54-1.1l-2.28,2.61A.75.75,0,0,0,182.16,311.46Z"/><path class="cls-2" d="M183.49,315.11l-1.13,1.29a.76.76,0,0,0,0,1l.89.85a.74.74,0,0,0,1.08,0l1.13-1.3a.74.74,0,0,0,0-1l-.9-.86A.75.75,0,0,0,183.49,315.11Z"/><path class="cls-2" d="M176.16,315.81l1-1.12a.75.75,0,0,0,0-1l-1.66-1.59c-.62,1-1.15,1.88-1.57,2.64l1.21,1.16A.74.74,0,0,0,176.16,315.81Z"/><path class="cls-2" d="M185.14,314.31l.89.86a.76.76,0,0,0,1.09-.05l.68-.78-.08-.16-1.29-2.43-1.34,1.53A.75.75,0,0,0,185.14,314.31Z"/><path class="cls-2" d="M187.23,317.6a.75.75,0,0,0-1.08,0L185,318.94a.75.75,0,0,0,0,1l2.13,2c.43-.71.67-1.18.67-1.18a8.56,8.56,0,0,0,.83-1.83Z"/><path class="cls-2" d="M174.51,316.61l-1.09-1a4.09,4.09,0,0,0-.22,3.64l1.36-1.56A.76.76,0,0,0,174.51,316.61Z"/><path class="cls-2" d="M181.91,323.69a.74.74,0,0,0-1.08.05l-1.6,1.83a.78.78,0,0,0,.05,1.06c1.87,1.95,2.65,1.87,4.34.17q.38-.37.72-.78Z"/><path class="cls-2" d="M180.15,322l-.9-.86a.74.74,0,0,0-1.08.05l-1.87,2.14c.88,1,1.46,1.69,1.82,2.07L180.2,323A.75.75,0,0,0,180.15,322Z"/><path class="cls-2" d="M180.51,312.26l-1.13,1.29a.75.75,0,0,0,.05,1l1.22,1.17a.74.74,0,0,0,1.08,0l1.13-1.3a.75.75,0,0,0-.05-1l-1.22-1.17A.75.75,0,0,0,180.51,312.26Z"/><path class="cls-2" d="M187.75,315.82a.74.74,0,0,0,0,1l1.07,1a6.25,6.25,0,0,0-.62-2.62Z"/><path class="cls-2" d="M177.54,320.5a.75.75,0,0,0,0-1l-1.22-1.17a.74.74,0,0,0-1.08,0l-1.52,1.74a10.47,10.47,0,0,0,.65.9c.51.62,1,1.16,1.37,1.64Z"/><path class="cls-2" d="M180.4,309.78a.75.75,0,0,0,1.08,0l2.39-2.74c-1.24-1.81-3.43-3.67-5.85.52Z"/><path class="cls-2" d="M185,325.3a28.68,28.68,0,0,0,1.74-2.47l-2.19-2.1a.74.74,0,0,0-1.08,0l-1,1.12a.76.76,0,0,0,0,1Z"/><path class="cls-2" d="M178.06,318.72a.75.75,0,0,0,1.08-.05l1-1.13a.75.75,0,0,0,0-1l-1.22-1.17a.74.74,0,0,0-1.08,0l-1,1.13a.76.76,0,0,0,.05,1Z"/><path class="cls-2" d="M181.8,321.21l1-1.13a.75.75,0,0,0,0-1l-.9-.85a.74.74,0,0,0-1.08.05l-1,1.12a.76.76,0,0,0,0,1l.9.85A.74.74,0,0,0,181.8,321.21Z"/><path class="cls-2" d="M190.31,309.12l6.81,4.15c-.34,1.87,1,5.73,2.41,8-.86-.08-1.78-.15-2.72-.19-.51-.68-1.31-1.69-2.56-3.15C191.31,314.55,190.31,309.12,190.31,309.12Z"/><path class="cls-2" d="M190.46,308a44.57,44.57,0,0,0-5.38-2.25,5.09,5.09,0,0,0-1.9-.15,1.67,1.67,0,0,1,.55-.68,14.47,14.47,0,0,1,11.75,1.4,13,13,0,0,1,1.81,1.25A33.5,33.5,0,0,0,190.46,308Z"/><path class="cls-2" d="M198.92,313.52a9.6,9.6,0,0,1,3.86,1,36.5,36.5,0,0,1,3,7h0C203.76,317.7,198.92,313.52,198.92,313.52Z"/><path class="cls-2" d="M192.43,308.77l.4,0a15.78,15.78,0,0,1,5.82,0,24.49,24.49,0,0,1,3.4,4.48,32.2,32.2,0,0,0-4.35-1Z"/><path class="cls-2" d="M200.2,320.13a12.85,12.85,0,0,1-2.24-6.21c5.23,4.19,7,7.95,7,7.95.06.24.13.46.19.67a10.18,10.18,0,0,1-1.86-.62,10.27,10.27,0,0,0-2.15-.44C200.86,321.08,200.56,320.64,200.2,320.13Z"/><path class="cls-2" d="M191.2,319.37c-.23-.24-.65-.67-.86-.9-.09.16-.13.54-.22.69-.22.39-.62.93-1.13,1.66a.43.43,0,0,0,.5.52,17,17,0,0,1,3.45-.3C192.44,320.59,191.83,320,191.2,319.37Z"/><path class="cls-2" d="M191.1,314.34a24.53,24.53,0,0,1-1.71-5.38,1,1,0,0,0-.57-.73c-.43-.19-1.08-.47-1.83-.77a1,1,0,0,0-1.23,1.45v0c1.72,3,4.13,7.44,4.54,8.2a1.13,1.13,0,0,0,.15.21l1.35,1.42c.68.69,1.27,1.36,1.7,1.89a1,1,0,0,0,.77.37l1.24,0A31.68,31.68,0,0,1,191.1,314.34Z"/><path class="cls-2" d="M171.65,308.84l-6.92,3.94c.28,1.88-1.14,5.7-2.65,8,.85-.05,1.78-.09,2.72-.11.53-.66,1.36-1.64,2.65-3.06C170.49,314.24,171.65,308.84,171.65,308.84Z"/><path class="cls-2" d="M171.54,307.68a44.43,44.43,0,0,1,5.45-2.09,5.21,5.21,0,0,1,1.9-.1,1.68,1.68,0,0,0-.53-.69,14.48,14.48,0,0,0-11.79,1.05,12.63,12.63,0,0,0-1.85,1.19A33.4,33.4,0,0,1,171.54,307.68Z"/><path class="cls-2" d="M162.92,313a9.6,9.6,0,0,0-3.89.87,36.62,36.62,0,0,0-3.21,6.9h0C158,317,162.92,313,162.92,313Z"/><path class="cls-2" d="M169.55,308.43l-.4-.06a15.88,15.88,0,0,0-5.82-.12,25.09,25.09,0,0,0-3.54,4.37,33,33,0,0,1,4.38-.91Z"/><path class="cls-2" d="M161.44,319.55a12.81,12.81,0,0,0,2.42-6.14c-5.35,4-7.21,7.73-7.21,7.73-.07.24-.14.46-.21.67a10.38,10.38,0,0,0,1.88-.57,10.61,10.61,0,0,1,2.16-.38C160.75,320.48,161.07,320.05,161.44,319.55Z"/><path class="cls-2" d="M170.46,319.05c.24-.22.67-.65.88-.86.09.16.12.53.2.69a19.72,19.72,0,0,0,1,1.75c0,.17-.27.49-.43.44a18.55,18.55,0,0,0-3.44-.4C169.18,320.24,169.81,319.69,170.46,319.05Z"/><path class="cls-2" d="M170.71,314a24.4,24.4,0,0,0,1.87-5.32,1,1,0,0,1,.6-.71c.42-.18,1.09-.44,1.84-.72a1,1,0,0,1,1.19,1.48l0,0c-1.8,3-4.34,7.32-4.78,8.07a.62.62,0,0,1-.16.2c-.25.26-1,1-1.39,1.37-.7.68-1.3,1.33-1.75,1.85a1,1,0,0,1-.79.35l-1.23,0A31.7,31.7,0,0,0,170.71,314Z"/><path class="cls-2" d="M221.31,306c-2.53,1-5.11-1.81-1.14-3.55a7.66,7.66,0,0,1,4.22.24A4.92,4.92,0,0,1,221.31,306Z"/><path class="cls-2" d="M214.68,306a1,1,0,0,1-1.63-1.26c.9-1.77,3.93-5,13.93-8.77,0,0,5.44-2-.4,1.23s-10.06,5.66-11.22,7.87A3.5,3.5,0,0,1,214.68,306Z"/><line class="cls-2" x1="226.23" y1="301.93" x2="238.41" y2="296.32"/><path class="cls-2" d="M225.81,301l12.46-5a.34.34,0,0,1,.28.62l-11.9,6.21a1,1,0,1,1-.93-1.77Z"/><path class="cls-2" d="M215.79,307.31a1,1,0,0,0-.17,2.05c1.92.53,6.35.48,15.87-4.38,0,0,5.13-2.69-1.18-.53s-11,3.61-13.38,3A3.23,3.23,0,0,0,215.79,307.31Z"/><line class="cls-2" x1="223.57" y1="300.81" x2="234.87" y2="295.07"/><path class="cls-2" d="M223.12,299.92l11.6-5.16a.34.34,0,0,1,.3.61l-11,6.33a1,1,0,1,1-1-1.74Z"/><line class="cls-2" x1="225.85" y1="304.59" x2="237.64" y2="299.49"/><path class="cls-2" d="M225.45,303.67l12.06-4.5a.34.34,0,0,1,.26.63l-11.53,5.7a1,1,0,0,1-1.34-.45,1,1,0,0,1,.45-1.34Z"/><path class="cls-2" d="M203.1,308.68l4-3.82s1.52-1.16.31-2.2-2.2.34-2.56.83-3.05,3.57-3.45,4.21-.39,1.24,0,1.61S203.1,308.68,203.1,308.68Z"/><path class="cls-2" d="M208.67,307.35l4-3.82s1.52-1.16.31-2.2-2.2.34-2.56.83-3,3.57-3.45,4.21-.39,1.24,0,1.61S208.67,307.35,208.67,307.35Z"/><path class="cls-2" d="M199.48,303.93a2.27,2.27,0,0,1,2,.13c1,.61,0,1.68-.47,2.21s-1.06,1.05-1.06,1.05l-1.63-1.24-.26-.22A8.57,8.57,0,0,1,199.48,303.93Z"/><path class="cls-2" d="M204.3,310.23l5.37,1.28s1.9.24,1.38,1.75-2.07.82-2.63.57-4.43-1.54-5.1-1.88-1-.88-.78-1.42S204.3,310.23,204.3,310.23Z"/><path class="cls-2" d="M209.77,308.57l5.37,1.28s1.91.23,1.39,1.74-2.07.82-2.63.58-4.44-1.54-5.11-1.89-1-.87-.78-1.41S209.77,308.57,209.77,308.57Z"/><path class="cls-2" d="M186.47,180.17s4,4.94,7.29,2.88-.21-4.29-1.15-3.58a1.89,1.89,0,0,0-.79,1.7,6.64,6.64,0,0,1-3.52-2.29c-1.89-2.06-4.3-3.18-6.35-1.06a4.21,4.21,0,0,0,1.35,6.59c2.23.82,3.41-2.83-.18-2.89C183.12,181.52,182.79,177.24,186.47,180.17Z"/><path class="cls-2" d="M174.59,180.41s-4,4.94-7.29,2.88.21-4.29,1.15-3.59a1.91,1.91,0,0,1,.79,1.71,6.71,6.71,0,0,0,3.53-2.3c1.88-2.05,4.29-3.17,6.35-1.05a4.21,4.21,0,0,1-1.36,6.58c-2.23.82-3.41-2.82.18-2.88C177.94,181.76,178.27,177.47,174.59,180.41Z"/><rect class="cls-2" x="139.73" y="180.6" width="23.99" height="2.51" rx="0.94"/><rect class="cls-2" x="197.94" y="180.6" width="23.99" height="2.51" rx="0.94"/><path class="cls-2" d="M64,253.93l16.51,12.2s7.92,5.81-5.88,3.42S58,266.48,58,259.25,58.25,248.84,64,253.93Z"/><path class="cls-2" d="M87.52,226.43s8.56,8.64,6.82,4.12c-2-5.22-1.47-5.91,1.32-10.44,2.16-3.5,6.92-7.93,3.39-10.61-5.6-4.24-11.93-11.81-22.65-7.33S63.16,220,63.16,220s0,1.81,3-.49c2.36-1.78,4-4.06,8.64-1.72a32.56,32.56,0,0,1,4.77,2.75C84.79,224.4,86.19,225.12,87.52,226.43Z"/><path class="cls-2" d="M105.23,71.68a.19.19,0,0,1-.1-.36c2.93-1.28,10.34-4.73,11.61-7.26,1.59-3.18.39-4.77-1.72-5.7s-.53-3.71,4.89-4.5,4,7.81,2.52,8.81c0,0,5.56-2.59,9.53,1.12s7.55,3.44,7.15,1.59a3.65,3.65,0,0,0-2.65-2.74c-.52,0,2.39-2.16,5.83.62s1.85,8.08-4.63,8.87-9.27-4.63-10.07-5.43a7.89,7.89,0,0,0-6-1.45,9.44,9.44,0,0,0-4.37,1.85s4,.66,4,3.71a8.5,8.5,0,0,1-2.91,6.62c-1.59,1.32,0-3.84-1.2-4.77S110.85,71.14,105.23,71.68Z"/><path class="cls-2" d="M124.84,157.61c-.82-5-5.26-2.11-6.9-3.48s1.91-1.84,3.62-1.23,2.66,1.44,1.57-1.43-4-2.87-6.76-2.67-10.59,6-10.59,6l-13.93,1.71s0-1.91,3.21-5.33,4.85-8.67,3.21-17.21-3.19-6-5.88-3A104,104,0,0,1,80.24,142c-.95.55.49,1.81.49,1.81,1.91,2.32,2.58,10.55.94,17.25S83,167.79,86,165.67s19.73-4.57,19.73-4.57c-1,4.37,1.78,7.51,4,8s4-1,1.71-1.71-2.18-3-1.43-4.58,2.52-2.32,3.14-.81.27.95,3.76,1.84,3.48,2.8,3.48,2.8c-.62,4.85.48,4,2.8,1.23s.34-5.74-1.91-6.83-3.49-2.12-2.6-2.66a4.3,4.3,0,0,1,4,.68C123.27,159.8,125.66,162.6,124.84,157.61Z"/><path class="cls-2" d="M111.06,98.09c-2.51,0-2.45-.68-1.75-.8a13.15,13.15,0,0,1,3.37.56c2.09.51,1.36-1.32-1.88-3.48s-8,4.77-9.68,5.4-7.46,2.52-10.82,2.55.31-6.74-5.59-6.54c-3.15.11-3.91-1.85.56-1.68S89.81,101,91.14,101s8.36-1,8.36-1.8-4.25-5.36-8.38-7.71S79.27,82,76.45,75.77s3.84-9.15,3.84-9.15c-.48,4.54,4.25,1.53,6.64,1.84s4.41,2.61,5.49,4.39,3.9,7.65,8.38,3.49-.82-4-1.17-3.59-2.45.92-2.48-.44-1.9-1.81-1.9-1.81c-2.07-2.7,1-1.43,1-1.43,4.64.63,4.7-1.24,1.62-1.69s-3.17-3.71-3.17-3.71,4-2.13,4.57-.13,1.74,1,2.41,1.05.22,1.14.22,1.14c1.85,5,3,.84,3,.84s1.86-7.41-2.91-8.95a24,24,0,0,0-9.88-.71s-.2,0,0-.67c.64-2.65-4.9-3.31-7.28-2.43s-14,0-14,0l4.9,3.76C69.5,61.88,62.28,65.68,62.75,77s6.36,15,7.24,17.62a27.33,27.33,0,0,1,1.16,5.47c.06.4.11.81.15,1.22a9.6,9.6,0,0,1-8.41-2.52c-5-4.37-6.56-9-6.08-13.53A31.76,31.76,0,0,1,57.56,80l-6-5.67L21.82,41.68a.74.74,0,0,0-1.28.43l.27,14.34a1.48,1.48,0,0,0,.52,1.25L49.86,81.59c0,.3-.06.59-.08.9-6.41-4.56-22.33-16-28-20.8-7.17-6.12-3.27,4.61-2.25,6.79s2.73,7,12.91,12a71,71,0,0,0,17.33,5.83c0,.39.06.79.11,1.19A45.16,45.16,0,0,1,33.62,83c-7.88-4.17-15.47-11-12.87-4.58S27.24,89.31,31.88,90.2a102.34,102.34,0,0,0,18.81,1.38c.17.56.36,1.13.58,1.69-2.51.36-11,1.38-16.59-.19-6.62-1.85-11.47-4.22-8.19,0s7.44,8.39,11.27,8c3.26-.35,13-2.15,15.74-3.47.26.39.53.78.82,1.16-2.74,1-8.53,3.15-11.65,3.4-4.16.35-12.15.14-5.8,3.28s10.58,2.19,15,0A37.5,37.5,0,0,1,58.38,103c.28.23.56.46.86.69a82.7,82.7,0,0,1-14,6.23c-2.94.8,2.3,3.6,4.5,3.67s4.52.62,7.79-2.32c2.07-1.85,4.38-3.78,5.8-4.95l1,.53c-1.76,1.88-4.82,5-5.65,5.72-1.25,1-5.21,3.14-.64,3.68s6.63-1,7.31-2.58a58.29,58.29,0,0,1,3-5.08c.38.14.81.28,1.26.42,0,0-2.57,4.65-3.32,5.88s-.53,2.09,2,1,2.59-1.67,2.67-2.21a50.27,50.27,0,0,1-1.75,7.55c-.35,1.21-4.89,9.89-8.09,12.18s-10.64,2.7-6.07-1.56,3.11-10.25,3.11-10.25c-2.06-7.75-10.22-6.2-12.57-3.18s-5.65,4.41-6.45,4.1-2-2.45-2-2.45c3.24-1.9.86-3,.86-3-5.18-2.86-8.48-2.19-8.48-2.19,1.27,12.63,3.27,9.14,4.32,8.19s.48-1.75,3.52,2.54,5.47,1.55,9.31-1.68,3.9.85,2.09,2.41-5.87,8.29-4.63,15.72,10,7.78,12.54,6.76,2.22,1.33,2.22,1.49.13,3.11-4,3.72-1.43,3.05-.6,3.81a3.43,3.43,0,0,1,.73,2.35l-.26,12.41c-1.65-.38-2.73,2.16-3,3s-2.32,5.78,2.25,7.43,1.71-1.71,1.4-2-1.05-1.14.22-3.27,2.51.54,2.86,1.78,1.93,1.78,2,1.94,2.7,3.2.92,4.63-1.49,4.13,1.62,2,1.74-4.72.82-7.07-.31-2.41.16-2.44,2,1.9,2.07,3.36,1.17,4.64,2.57,1.75,1.46-3.94-.19-5.49-1.94-2.54-1.5-3.4,1.56,1.11,2.7,2.82,3,.8,2.7-2.73-6.38-3.77-9.14-3.62-2.57-.22-2.07-5,2.32-7.12,3.31-7.66a57.21,57.21,0,0,0,10.32-7.36c5-4.48.6-14.42-.48-16.83s.49-3.39,1.14-1.46c3.07,9.06,1.84,9.36,6.16,6.09s12.42-11.09,16-18c2.85-5.5,1.71-13.69,2-14.42s1.34-1.11,2.09-1.35c.52-.17,2.57-1.12,2.16.18a3.09,3.09,0,0,0,.1,2.25c2.12,2.94,2.51,1.24,2.28-.38s.57-2.06,1.3-2.7a2.8,2.8,0,0,1,3.73.43c2,2.17,3,2.14,2.52-.11s-1.32-2.6-3.61-3.05-1.06-.93.44-1.19c2.17-.38,3.84,2.83,4.13,1.44A3.46,3.46,0,0,0,111.06,98.09ZM84.27,57.53c1.71,0,3.09.53,3.09,1.19S86,59.91,84.27,59.91s-3.09-.53-3.09-1.19S82.57,57.53,84.27,57.53Z"/><path class="cls-2" d="M281.51,265.46s19.11-12.69,19.91-13.28,4.77-2.35,4.84.73-.18,7.53-2.81,10.38c-3,3.23-7.44,3.75-11.57,4.06a95.89,95.89,0,0,1-10,0C281.44,267.35,279.55,267,281.51,265.46Z"/><path class="cls-2" d="M275.29,199.84c4.5-1.75,11.91-2.41,18.4,7.22A38,38,0,0,1,299,218c.29,1.16-.92,2-1.7,1.09-.59-.69-1.13-1.29-1.56-1.7-2.37-2.29-4.15-2.79-8.25-.34s-18.78,13-18.78,13a29.63,29.63,0,0,0,1.52-6.24c.05-.41-5.1-5.57-9.15-12.61C261.09,211.25,269.61,202,275.29,199.84Z"/><path class="cls-2" d="M260.66,200.39c-.11,5.06.65,6.18,1.77,5.44l5.54-4.52c.35-.28.72-.55,1.1-.81l4.88-3.27a1.65,1.65,0,0,0-.18-3.07l-12.23-4.65c-1.27-.48-2.37-.28-1.84,1.83A54.34,54.34,0,0,1,260.66,200.39Z"/><path class="cls-2" d="M324.22,176.94l-11-.48h-.42a6.06,6.06,0,0,1-1.32,5.81c-1.83,2.08-4.52,2.93-5.73,2.69a1.91,1.91,0,0,1-1.33-2.29c.07-.85-.55-1-1.55.66s.18,3.29.4,3.94c.42,1.24.31,4.1-2.91,2.8s-4.24-3.38-4.16-3.69-.95.81-2.57-.88a6.48,6.48,0,0,1-2-3.91,7.41,7.41,0,0,1,0-1.68c.11-.54-1.8.05-2.43-2.4a6.62,6.62,0,0,1-.17-1c-2.93.08-18.41.67-24.78,4.77-7,4.53-.49,7.55,3.07,8.43s9.32,2.61,10.41,6.11c.25.78,3.37,0,9.05,1.89,5,1.66,9.49,9.52,17.47,14.09,7.77,4.46,19.51-3.32,19.51-3.32l-10.44-14.17Z"/><path class="cls-2" d="M102.57,191.8c.53-2.11-.57-2.31-1.83-1.83L88.5,194.62a1.65,1.65,0,0,0-.18,3.07L93.2,201a12.45,12.45,0,0,1,1.1.81l5.54,4.51c1.12.75,1.88-.37,1.77-5.43A54.34,54.34,0,0,1,102.57,191.8Z"/><path class="cls-2" d="M38.06,177.4l11-.48h.41a6.06,6.06,0,0,0,1.32,5.81c1.83,2.08,4.53,2.92,5.73,2.69a1.92,1.92,0,0,0,1.33-2.29c-.07-.85.55-1,1.55.66s-.17,3.29-.4,3.94c-.42,1.24-.31,4.1,2.91,2.8s4.25-3.38,4.16-3.69,1,.81,2.57-.89a6.52,6.52,0,0,0,2-3.9,8.08,8.08,0,0,0,0-1.68c-.12-.55,1.79,0,2.42-2.4a6.62,6.62,0,0,0,.17-1c2.93.08,18.42.67,24.78,4.77,7,4.53.5,7.55-3.07,8.43s-9.47,1.64-10.81,7.29c-.18.79-3,.06-8.62,2-5,1.66-9.46,8.83-17.5,12.85s-19.51-3.32-19.51-3.32L49,194.73Z"/><path class="cls-2" d="M257,71.43a.19.19,0,0,0,.1-.37c-2.93-1.28-10.34-4.72-11.61-7.26-1.59-3.18-.39-4.77,1.72-5.7s.53-3.7-4.9-4.5-4,7.81-2.51,8.81c0,0-5.56-2.59-9.53,1.12s-7.55,3.44-7.15,1.59a3.64,3.64,0,0,1,2.64-2.74c.53,0-2.38-2.16-5.82.62s-1.86,8.08,4.63,8.87,9.27-4.63,10.07-5.42A7.84,7.84,0,0,1,240.56,65a9.57,9.57,0,0,1,4.37,1.85s-4,.66-4,3.71a8.43,8.43,0,0,0,2.91,6.62c1.59,1.32,0-3.84,1.2-4.77S251.35,70.88,257,71.43Z"/><path class="cls-2" d="M237.36,157.36c.82-5,5.26-2.12,6.9-3.49s-1.91-1.84-3.62-1.23-2.66,1.44-1.57-1.43,4-2.87,6.76-2.66,10.59,6,10.59,6l13.93,1.7s0-1.91-3.21-5.32-4.85-8.68-3.21-17.22,3.19-6,5.87-3A104.53,104.53,0,0,0,282,141.78c1,.56-.49,1.81-.49,1.81-1.91,2.32-2.58,10.56-.94,17.25s-1.37,6.69-4.31,4.58-19.74-4.58-19.74-4.58c1,4.37-1.77,7.51-4,8s-4-1-1.7-1.71,2.18-3,1.43-4.57-2.53-2.33-3.14-.82-.27,1-3.76,1.84-3.48,2.8-3.48,2.8c.61,4.85-.48,4-2.8,1.23s-.34-5.74,1.91-6.83,3.49-2.12,2.6-2.66a4.3,4.3,0,0,0-4,.68C238.93,159.54,236.54,162.34,237.36,157.36Z"/><path class="cls-2" d="M247.62,102c.28,1.39,2-1.82,4.12-1.44,1.51.26,2.73.75.45,1.19s-3.1.8-3.61,3,.51,2.28,2.52.11a2.79,2.79,0,0,1,3.72-.43c.73.64,1.53,1.08,1.31,2.7s.16,3.32,2.28.38a3.09,3.09,0,0,0,.1-2.25c-.42-1.3,1.64-.34,2.16-.18.75.24,1.81.62,2.09,1.36s-.85,8.91,2,14.41c3.59,6.92,11.69,14.73,16,18s3.09,3,6.16-6.09c.65-1.93,2.22-.95,1.14,1.46s-5.53,12.35-.48,16.83a57.21,57.21,0,0,0,10.32,7.36c1,.54,2.8,2.83,3.3,7.66s.7,5.2-2.06,5.05-8.86.09-9.14,3.62,1.55,4.44,2.7,2.73,2.25-3.69,2.69-2.83.16,1.84-1.49,3.4-1.59,2.6-.19,5.49,2.48-.28,2.57-1.75,1.59-3.39,2.07-3.36,1.08.09.16,2.44-2.29,4.94.82,7.08,3.4-.57,1.62-2,.86-4.47.92-4.63,1.65-.7,2-1.94,1.59-3.9,2.86-1.78.54,3,.22,3.27-3.17,3.62,1.4,2,2.57-6.54,2.25-7.43-1.39-3.43-3-3.05l-.26-12.41a3.43,3.43,0,0,1,.73-2.35c.83-.76,3.56-3.21-.6-3.81s-4-3.56-4-3.72-.29-2.5,2.22-1.49,11.3.67,12.54-6.76-2.83-14.16-4.64-15.72-1.74-5.65,2.1-2.41,6.26,6,9.3,1.68,2.48-3.49,3.53-2.54,3.05,4.44,4.32-8.19c0,0-3.31-.67-8.48,2.19,0,0-2.38,1.08.86,3,0,0-1.21,2.13-2,2.45s-4.1-1.08-6.45-4.1-10.51-4.57-12.57,3.18c0,0-1.46,6,3.11,10.25s-2.86,3.85-6.07,1.56-7.74-11-8.09-12.18a50.31,50.31,0,0,1-1.75-7.54c.08.53.23,1.15,2.67,2.2s2.7.21,1.95-1-3.32-5.87-3.32-5.87l1.26-.42a56.83,56.83,0,0,1,3,5.08c.68,1.58,2.73,3.12,7.31,2.58s.61-2.67-.65-3.69c-.82-.68-3.88-3.83-5.64-5.72.34-.17.65-.35,1-.53,1.42,1.17,3.73,3.1,5.79,5,3.28,2.94,5.6,2.39,7.8,2.32s7.43-2.87,4.5-3.67a81.88,81.88,0,0,1-14-6.23l.86-.69a37.15,37.15,0,0,1,6.48,2.46c4.44,2.19,8.68,3.15,15,0s-1.64-2.93-5.8-3.27c-3.12-.26-8.91-2.36-11.65-3.41.29-.38.56-.77.82-1.15,2.77,1.31,12.48,3.11,15.74,3.46,3.83.41,8-3.75,11.27-8s-1.57-1.85-8.19,0c-5.6,1.57-14.08.55-16.59.19.22-.56.41-1.13.58-1.69a102.34,102.34,0,0,0,18.81-1.38c4.64-.88,8.53-5.32,11.13-11.74s-5,.41-12.87,4.57a45.16,45.16,0,0,1-16.25,4.49c.05-.4.08-.8.11-1.19a71.28,71.28,0,0,0,17.33-5.82c10.18-5.06,11.88-9.84,12.91-12s4.92-12.9-2.26-6.79c-5.67,4.84-21.59,16.24-28,20.8,0-.3-.05-.6-.08-.89l28.53-23.9a1.43,1.43,0,0,0,.51-1.24l.27-14.35a.73.73,0,0,0-1.27-.43L310.65,74.1l-6,5.67a31.83,31.83,0,0,1,.75,5.26c.48,4.57-1.1,9.15-6.08,13.52a9.58,9.58,0,0,1-8.41,2.52c0-.41.09-.81.14-1.22a27.75,27.75,0,0,1,1.17-5.47c.88-2.59,6.76-6.28,7.23-17.62s-6.75-15.14-12.93-19.45l4.9-3.76s-11.65.88-14,0-7.92-.22-7.28,2.44c.15.62,0,.66,0,.66a24.16,24.16,0,0,0-9.88.71c-4.77,1.54-2.91,9-2.91,9s1.19,4.14,3-.84c0,0-.45-1.08.22-1.14s1.87,1,2.41-1,4.57.13,4.57.13-.09,3.27-3.17,3.72-3,2.31,1.62,1.68c0,0,3.08-1.27,1,1.43,0,0-1.87.44-1.9,1.81s-2.13.82-2.48.44-5.65-.57-1.17,3.59,7.3-1.72,8.38-3.49,3.11-4.07,5.49-4.39,7.12,2.7,6.64-1.84c0,0,6.67,2.92,3.84,9.15s-10.54,13.4-14.67,15.75S262.7,98.17,262.7,99s7,1.8,8.36,1.8,1.25-6.75,5.87-6.92c4.47-.17,3.71,1.78.56,1.67-5.91-.2-2.22,6.57-5.59,6.54s-9.11-1.91-10.82-2.55-6.45-7.55-9.69-5.39-4,4-1.87,3.47a12.37,12.37,0,0,1,3.37-.55c.7.11.76.76-1.75.8A3.45,3.45,0,0,0,247.62,102ZM281,58.46c0,.66-1.39,1.19-3.09,1.19s-3.1-.53-3.1-1.19,1.39-1.19,3.1-1.19S281,57.8,281,58.46Z"/><path class="cls-2" d="M140.16,111.93h6V160h7.25v11.31H140.16Z"/><path class="cls-2" d="M158.34,147.54,151,111.93h6.52l3.89,20.38,3.85-20.38h6.52l-7.38,35.61v23.77h-6Z"/><path class="cls-2" d="M171.64,163.92l2-10.33c2.06,4,4,5.88,5.82,5.88,1.23,0,2-1.52,2-4.46,0-3.38-2.16-5.16-4.32-8-2.4-3.11-5-8.19-5-18.34S175.36,111,179.59,111c2.52,0,5.22,3.2,7.18,8.72l-2,9.89c-2.2-4.46-3.69-5.79-5.09-5.79-1,0-1.83,1.51-1.83,4.18s1.33,4.45,2.83,6.32c2.69,3.39,6.48,7.39,6.48,19.5,0,11.48-3.46,18.51-7.38,18.51C176.63,172.28,173.63,169.17,171.64,163.92Z"/><path class="cls-2" d="M189.53,141.66c0-17.71,4.19-30.71,9.84-30.71s9.87,13,9.87,30.71-4.22,30.62-9.87,30.62S189.53,159.38,189.53,141.66Zm13.63,0c0-12-1.8-17.71-3.79-17.71s-3.76,5.69-3.76,17.71,1.76,17.72,3.76,17.72S203.16,153.68,203.16,141.66Z"/><path class="cls-2" d="M212.6,111.93h6V160h7.25v11.31H212.6Z"/><rect class="cls-2" x="138.63" y="135.14" width="9.01" height="9.01" transform="translate(-56.82 142.11) rotate(-45)"/><rect class="cls-2" x="211.52" y="136.56" width="9.01" height="9.01" transform="translate(-36.48 194.07) rotate(-45)"/><path class="cls-2" d="M105.17,111.36a8,8,0,0,1-2.27-1.61,3.74,3.74,0,0,1-1.13-2.33,1.62,1.62,0,0,0-.14-.55c-2.16,7.8-.1,18.71,6,30.39a66.55,66.55,0,0,0,5.35,8.56h5a58.22,58.22,0,0,1-6.72-10.15C106.72,127,104.68,118.16,105.17,111.36Z"/><path class="cls-2" d="M114.28,132.68c-5.22-10.14-6-20.22-3.44-26.23-.74-.61-1.18-.83-1.71-.71-2.61,6.5-1.27,17.52,4.27,28.3a53.36,53.36,0,0,0,8.13,11.78h2.52A47.77,47.77,0,0,1,114.28,132.68Z"/><path class="cls-2" d="M161.91,92.58c-11.09-5.85-16.09-7.09-24.87-7.09a28.94,28.94,0,0,0-21.93,10.08,1.58,1.58,0,0,1,0,2.1s0-.06.29.28c4.95-6.36,12.64-11,21.43-11,8.18,0,13.51,1.31,23.84,6.74A60.57,60.57,0,0,1,172.23,102H175A57.81,57.81,0,0,0,161.91,92.58Z"/><path class="cls-2" d="M256.8,111.36a7.9,7.9,0,0,0,2.28-1.61,3.74,3.74,0,0,0,1.13-2.33,1.62,1.62,0,0,1,.14-.55c2.16,7.8.1,18.71-6,30.39a66.51,66.51,0,0,1-5.34,8.56h-5a59.38,59.38,0,0,0,6.72-10.15C255.26,127,257.29,118.16,256.8,111.36Z"/><path class="cls-2" d="M225.89,79.76c-10.58,0-16.64,1.74-30,8.64A71.39,71.39,0,0,0,181,98.57,71.39,71.39,0,0,0,166.08,88.4c-13.35-6.9-19.41-8.64-30-8.64A35.48,35.48,0,0,0,109.73,91.3a3.86,3.86,0,0,1,.49.09,8.46,8.46,0,0,1,3.29,2.21,32.18,32.18,0,0,1,23.56-10.11c9.6,0,15.1,1.58,27.21,7.84a63.57,63.57,0,0,1,15.17,10.75l1.54,1.65,1.54-1.65A63.37,63.37,0,0,1,197.7,91.33c12.11-6.26,17.61-7.84,27.21-7.84A32.18,32.18,0,0,1,248.47,93.6a8.46,8.46,0,0,1,3.29-2.21,3.56,3.56,0,0,1,.49-.09A35.49,35.49,0,0,0,225.89,79.76Z"/><path class="cls-2" d="M247.7,132.68c5.22-10.14,6-20.22,3.44-26.23.74-.61,1.18-.83,1.71-.71,2.61,6.5,1.27,17.52-4.27,28.3a53,53,0,0,1-8.14,11.78h-2.51A47.77,47.77,0,0,0,247.7,132.68Z"/><path class="cls-2" d="M200.07,92.58c11.09-5.85,16.09-7.09,24.87-7.09a28.94,28.94,0,0,1,21.93,10.08,1.58,1.58,0,0,0,0,2.1s-.05-.06-.29.28c-5-6.36-12.65-11-21.43-11-8.18,0-13.51,1.31-23.84,6.74A60.26,60.26,0,0,0,189.75,102H187A57.81,57.81,0,0,1,200.07,92.58Z"/><path class="cls-2" d="M296.64,225.19c-5-10.54-17,1.34-28,9-1.72,1.2-3.91,2.62-6.46,4.18a45.83,45.83,0,0,0,4.95-13.16c.07-.42-4.93-6.29-9.51-15.25-4.26-8.31-7.84-16.73-11.08-24.3a54.11,54.11,0,0,1-3.49-13.13l-3.78-2c.22,4.55,1.91,12.16,5.6,21.33s5.08,11.71,8,18.94c5.83,14.38,2.29,27.29-6.24,36.43q-1.8,1-3.66,1.95A37.07,37.07,0,0,0,251.75,236c2.41-5.57,2.43-16.37-2-28-.47-1.23-1-2.42-1.5-3.58h0l0,0c-.57-1.27-1.18-2.5-1.81-3.67-5.55-12.47-9.32-31.09-9.32-31.09l-2.23-1.8a93.08,93.08,0,0,0,4.46,19.93,157.2,157.2,0,0,1,6,20.18s.93,7.63.52,11.69a45,45,0,0,1-5.89,19.07c-4.16,6.56-8.23,10.89-16.89,15.74-10.71,6-25.16,8.26-41.27,7.71-17.38-.6-32-3.36-43.33-9-13-7.44-22.34-22.54-20.44-41.39a33.33,33.33,0,0,1,1.18-6c.94-4,5.26-16.12,6.69-20.26a59.22,59.22,0,0,0,2.38-19.16l-2.36,3s-1.48,15.56-7.37,27.84c-1.64,3.58-3.21,6.89-4.71,10.83-4.46,11.66-4.44,22.46-2,28,1.77,4.07,3.37,8,10.55,15l0,0c-1.84-.89-3-1.5-3-1.5l-1.37-.73c-9.63-9.2-14-22.78-7.79-38,2.94-7.23,4.27-9.63,8-18.94s5.4-17,5.62-21.53l-3.8,2.21a53.83,53.83,0,0,1-3.48,13.13c-3.25,7.57-6.83,16-11.08,24.3-4.59,9-9.58,14.83-9.51,15.25A46.46,46.46,0,0,0,101.18,239C94,234.27,88.43,230,82.93,226.33c-9.39-6.32-13.22-6.12-17.05-1.53s-8.61,21.83-8.61,21.83c14,7.85,37.56,24.57,55.34,31.79,19.34,7.85,35.81,11.68,46.53,12.26l.93.05,12.56,11.62H179l-12.15-11.24,3.56.16,11.78,10.92,9.7-10.48,3.2-.06-9.91,10.7h6.4l10.17-11c19-1.13,29.95-4.95,45.07-11.42,17.33-7.4,32.94-15.7,45.39-25.66,4.44-3.55,12.25-8.61,12.25-8.61A121.92,121.92,0,0,0,296.64,225.19ZM80.75,241.09a.69.69,0,0,1-1,.21l-.11-.08a.67.67,0,0,1-.32-.89l.06-.11a.7.7,0,0,0-.08-1,.4.4,0,0,0-.15-.1.78.78,0,0,0-1.1.07,1,1,0,0,0-.11.17c-.4.54-.41,1.13,0,2.43.55,1.66.51,2.51-.15,3.44-.86,1.23-2.11,1.42-3.54.45s-1.58-2.06-.74-3.17a.75.75,0,0,1,1-.15s0,0,.05,0a.66.66,0,0,1,.29.91.41.41,0,0,1,0,.09.76.76,0,0,0,0,1.07,1.1,1.1,0,0,0,1.37.11.64.64,0,0,0,.13-.19c.45-.62.44-1.21,0-2.51-.54-1.67-.46-2.54.17-3.38a2.28,2.28,0,0,1,3.15-.64,2,2,0,0,1,.27.22C81.29,239,81.43,240.17,80.75,241.09Zm8,4.37-.09-.05-.91-.55c-1.3,2-2.59,4-3.89,6.09-.25.39-.66.45-1.13.16s-.64-.68-.39-1.1q2-3,4-6l-.9-.57a.62.62,0,0,1-.27-.95.66.66,0,0,1,.91-.21.31.31,0,0,1,.09.07c1.06.66,2.13,1.32,3.2,2a.62.62,0,0,1,.36.8.83.83,0,0,1-.07.13A.66.66,0,0,1,88.77,245.46Zm8.35,5.62-.28.5A1.72,1.72,0,0,1,95,252.65c.62.59.54,1.31,0,2.22-.23.41-.45.83-.68,1.25a1.69,1.69,0,0,0-.2.5A1.1,1.1,0,0,1,94,257c-.15.28-.49.29-.94.05-.62-.32-.76-.74-.36-1.46l.85-1.53c.41-.74.29-1.12-.37-1.48l-.51-.28c-.55.95-1.09,1.9-1.63,2.85a.74.74,0,0,1-1,.29l-.11-.07c-.48-.31-.62-.66-.39-1,1.32-2.25,2.63-4.49,4-6.73a.73.73,0,0,1,1-.3l.1.07,1.39.77C97.5,248.88,97.8,249.81,97.12,251.08Zm8.19,2.65c-.66,2.42-1.31,4.86-1.94,7.3a.62.62,0,0,1-.07.19.7.7,0,0,1-.91.38l-.09,0a.78.78,0,0,1-.49-1h0c.11-.39.23-.78.34-1.17l-1.8-.86-.72,1a.76.76,0,0,1-1,.24.64.64,0,0,1-.41-.82l0-.09a1.43,1.43,0,0,1,.14-.2c1.56-2,3.12-4,4.66-6a1.22,1.22,0,0,1,1.57-.34A1.16,1.16,0,0,1,105.31,253.73Zm9.23,3.74a.66.66,0,0,1-.8.48l-.19-.08-1-.39q-1.42,3.3-2.83,6.61c-.18.42-.56.54-1.06.33a.65.65,0,0,1-.39-1c1-2.19,1.92-4.39,2.89-6.58l-1-.41c-.43-.18-.58-.5-.4-.88a.64.64,0,0,1,.83-.36l.1,0c1.12.48,2.24.95,3.37,1.41A.65.65,0,0,1,114.54,257.47Zm8.68,3.25a.25.25,0,0,1,0,.07c-.88,2.46-1.75,4.92-2.63,7.39a.76.76,0,0,1-1,.41h0a.74.74,0,0,1-.58-.88l0-.12c.39-1.09.79-2.17,1.19-3.26l-1.64-.59c-.41,1.08-.82,2.16-1.22,3.25a.74.74,0,0,1-1,.38h0a.75.75,0,0,1-.59-.87.06.06,0,0,0,0,0l2.83-7.32a.76.76,0,0,1,1-.4h0a.71.71,0,0,1,.51.87l0,.07L119,262.56l1.62.59c.36-1,.71-1.93,1.06-2.89a.74.74,0,0,1,1-.43l0,0A.71.71,0,0,1,123.22,260.72Zm8.69,4.34-.16.54c-.26.9-.75,1.38-1.51,1.43.71.44.77,1.16.48,2.15l-.4,1.36a2.35,2.35,0,0,0-.09.53,1,1,0,0,1,0,.35c-.09.3-.41.39-.89.25-.65-.19-.86-.57-.62-1.35.16-.56.33-1.12.5-1.67.25-.81.06-1.15-.64-1.36l-.54-.17c-.32,1-.65,2.08-1,3.12a.7.7,0,0,1-1,.44c-.5-.16-.77-.47-.63-.91.8-2.46,1.59-4.92,2.4-7.38a.71.71,0,0,1,.85-.51.34.34,0,0,1,.15.06l1.47.46C131.84,262.86,132.28,263.71,131.91,265.06Zm9.24,2a2.42,2.42,0,0,1-.1.45l-1.11,4.66A2.14,2.14,0,0,1,137.5,274a2.85,2.85,0,0,1-.5-.14c-1.57-.41-2.22-1.44-1.84-2.83l1.23-4.62a2.15,2.15,0,0,1,2.5-1.74,1.9,1.9,0,0,1,.39.11A2.1,2.1,0,0,1,141.15,267.08Zm9.12.72a1.4,1.4,0,0,1-.13.34c-.78,1.33-1.58,2.64-2.38,3.94-.21,1.06-.41,2.12-.62,3.18a.82.82,0,0,1-1,.49.83.83,0,0,1-.54-.8h0c.21-1.06.42-2.12.64-3.18-.25-1.48-.47-3-.69-4.44a1.34,1.34,0,0,1,0-.4.67.67,0,0,1,.75-.56l.08,0c.49.1.61.34.68.87.11.94.24,1.89.36,2.83.48-.84,1-1.68,1.43-2.53.24-.43.47-.59.9-.51a.6.6,0,0,1,.54.65A.3.3,0,0,1,150.27,267.8Zm14.85,3.58v.36c-.09.93-.46,1.48-1.18,1.67a1.73,1.73,0,0,1,1,2,2.59,2.59,0,0,1-.08.78c-.13,1.4-1,2.07-2.65,1.9l-1.74-.19a.76.76,0,0,1-.77-.73v-.05q.48-3.81.94-7.61a.7.7,0,0,1,.78-.63h.07l1.55.17C164.63,269.23,165.25,270,165.12,271.38Zm9.32,1.2a1.66,1.66,0,0,1-1.11,1.74c.78.26,1,.94,1,2l-.06,1.42a2.35,2.35,0,0,0,0,.53,1,1,0,0,1,0,.35c0,.32-.3.47-.79.45-.66,0-.95-.35-.91-1.16l.09-1.74c0-.85-.22-1.13-.94-1.17h-.54c-.07,1.09-.14,2.18-.2,3.26,0,.46-.34.7-.85.66a.71.71,0,0,1-.75-.8q.26-3.87.53-7.73a.71.71,0,0,1,.7-.69l.12,0,1.52.1c1.59.08,2.25.8,2.19,2.2Zm7.87,1.21a.67.67,0,0,1,.72.64h0a.66.66,0,0,1-.67.66h-1.59v2.79h2a.65.65,0,1,1,0,1.3h-3a.75.75,0,0,1-.72-.73c0-2.56.09-5.12.14-7.67a.73.73,0,0,1,.73-.72h2.87a.65.65,0,1,1,0,1.3h-2v2.41ZM195,270.42c-.11,2.54-.22,5.08-.36,7.61a1.09,1.09,0,0,1-2.14.17h0q-.48-2.7-.94-5.4c-.12,1.8-.24,3.61-.37,5.42a1,1,0,0,1-1,1H190a1,1,0,0,1-1.24-.68,1.1,1.1,0,0,1,0-.31q-.56-3.69-1.1-7.35v-.2a.71.71,0,0,1,.67-.75h.05a.65.65,0,0,1,.74.55v.06c.31,2.16.62,4.33.94,6.48.15-2.13.28-4.26.41-6.39a1,1,0,0,1,1.88-.12v0c.34,2.11.7,4.21,1.06,6.32.1-2.2.19-4.41.27-6.61a.68.68,0,0,1,.78-.55.67.67,0,0,1,.54.55Zm6,8a.82.82,0,0,1-.84-.69l-.75-7.79a.8.8,0,0,1,.81-.76.78.78,0,0,1,.73.61c.28,2.59.55,5.19.82,7.78A.82.82,0,0,1,200.94,278.41Zm10.29-1.31a.8.8,0,0,1-.26,0,1,1,0,0,1-1.14-.69c-.86-1.86-1.71-3.72-2.54-5.6.28,2,.57,4,.85,6,.06.4-.18.67-.63.73a.67.67,0,0,1-.83-.53q-.5-3.75-1-7.5a1,1,0,0,1,.8-1.17h.07a1.11,1.11,0,0,1,1.27.78c.67,1.46,1.34,2.91,2,4.37-.24-1.62-.49-3.24-.74-4.86a.62.62,0,0,1,.48-.72h.1a.61.61,0,0,1,.77.42.3.3,0,0,1,0,.1l1.23,7.69A.73.73,0,0,1,211.23,277.1Zm7.64-1.43a2.41,2.41,0,0,1-2.65-1.77l0,0c-.29-1.57-.59-3.14-.89-4.7a2.35,2.35,0,0,1,4.6-.91v.18a.74.74,0,0,1-.68.81.76.76,0,0,1-.78-.51.52.52,0,0,0-.05-.27c-.14-.64-.49-.82-1-.72s-.75.4-.62,1l1,4.88c.13.64.49.81,1,.71a.74.74,0,0,0,.69-.81.43.43,0,0,0,0-.19l-.36-1.75H219a.66.66,0,0,1-.8-.45.64.64,0,0,1,.45-.8l.09,0,.85-.17a.73.73,0,0,1,.91.47s0,0,0,.06l.48,2.22A2.4,2.4,0,0,1,218.87,275.67Zm15.49-3.59a2.41,2.41,0,0,1-2.84-1.57h0l-1.32-4.72a2.07,2.07,0,0,1,1.18-2.67,2.26,2.26,0,0,1,.43-.11,2.1,2.1,0,0,1,2.76,1.1,2.52,2.52,0,0,1,.12.39,1.54,1.54,0,0,0,.1.35.67.67,0,0,1-.44.84l-.08,0a.7.7,0,0,1-.9-.38.14.14,0,0,0,0-.06,1.41,1.41,0,0,0-.13-.43.72.72,0,0,0-.81-.64.67.67,0,0,0-.19.05.72.72,0,0,0-.57.84,1,1,0,0,0,.05.16c.47,1.63.95,3.26,1.41,4.89a.74.74,0,0,0,.84.62l.16,0a.74.74,0,0,0,.6-.85.88.88,0,0,0,0-.15c-.08-.25-.15-.5-.23-.76a.69.69,0,0,1,.49-.85H235a.67.67,0,0,1,.9.34l0,.09.21.66A2.39,2.39,0,0,1,234.36,272.08Zm9.32-3c-1.59.54-2.6,0-3.06-1.39l-1.53-4.54a2.13,2.13,0,0,1,1.09-2.8,2.44,2.44,0,0,1,.44-.13,2.17,2.17,0,0,1,2.89,1.05,2.83,2.83,0,0,1,.11.31l1.65,4.5C245.78,267.49,245.27,268.58,243.68,269.12Zm12.73-5a.68.68,0,0,1-1-.31c-.85-2-1.69-3.91-2.55-5.87q.78,3.15,1.52,6.33a.68.68,0,0,1-.48.86h0a.72.72,0,0,1-1-.25l0,0c-1.17-1.84-2.32-3.69-3.47-5.54.82,2,1.64,4,2.44,6,.15.38,0,.68-.45.85s-.71.06-.85-.32l-2.79-7a1,1,0,0,1,.36-1.37.9.9,0,0,1,.27-.11,1.13,1.13,0,0,1,1.55.44v0l3,4.86q-.68-2.79-1.38-5.55a1.06,1.06,0,0,1,.67-1.34l.06,0a1.09,1.09,0,0,1,1.49.42l.06.14q1.53,3.42,3,6.84C257,263.62,256.86,264,256.41,264.16Zm6.09-6.81-.7.33,1.35,2.77c.2.41,0,.78-.45,1a.73.73,0,0,1-1-.2l-.07-.13c-1.12-2.34-2.24-4.68-3.37-7a.68.68,0,0,1,.25-.93.46.46,0,0,1,.16-.07l1.41-.66a2.14,2.14,0,0,1,3,.58,1.68,1.68,0,0,1,.22.42l.42.8C264.36,255.56,264,256.64,262.5,257.35Zm11.95-1.91-.13.07a.85.85,0,0,1-1.12-.17c-.26-.32-.51-.64-.77-1l-1.77,1,.41,1.14a.71.71,0,0,1-.31,1l-.08,0a.69.69,0,0,1-.95-.21l-.05-.08a2,2,0,0,1-.08-.22c-.74-2.4-1.52-4.8-2.32-7.19a1.18,1.18,0,0,1,.64-1.45,1.21,1.21,0,0,1,1.59.26c1.65,1.93,3.32,3.84,5,5.75a.52.52,0,0,1,.12.17A.67.67,0,0,1,274.45,255.44Zm8.7-5.06a1,1,0,0,1-1.38-.15c-1.6-1.34-3.19-2.69-4.77-4.07l3.3,5.21c.22.34.1.69-.31.94a.72.72,0,0,1-1.05-.16q-2-3.24-4-6.48a1,1,0,0,1,.27-1.39l.08-.05a1.23,1.23,0,0,1,1.57.17c1.22,1.07,2.46,2.13,3.7,3.18l-2.72-4.16a.6.6,0,0,1,.12-.84.39.39,0,0,1,.14-.08.66.66,0,0,1,.93.05.36.36,0,0,1,.07.1c1.46,2.18,2.92,4.36,4.36,6.55C283.81,249.72,283.61,250.1,283.15,250.38Zm7.42-4.83-.08,0a.81.81,0,0,1-1.13,0l-.06-.07-1.92-2.66c-1.3-.84-2.6-1.68-3.88-2.53a1.64,1.64,0,0,1-.3-.29.67.67,0,0,1,.13-.94.24.24,0,0,1,.09-.06c.43-.29.71-.22,1.16.09.8.56,1.61,1.11,2.42,1.66-.28-.94-.57-1.87-.86-2.8-.15-.48-.1-.76.28-1a.66.66,0,0,1,.94,0l.06.09a1.09,1.09,0,0,1,.17.34c.41,1.48.82,3,1.2,4.47l2,2.61A.74.74,0,0,1,290.57,245.55Z"/><path class="cls-2" d="M243.78,266.75l0,0-1.68-4.68c-.22-.62-.6-.74-1.08-.58s-.69.5-.48,1.11c.54,1.57,1.09,3.13,1.63,4.7a.78.78,0,0,0,.9.64.66.66,0,0,0,.2-.06.76.76,0,0,0,.56-.92A.64.64,0,0,0,243.78,266.75Z"/><path class="cls-2" d="M139,266c-.49-.12-.85,0-1,.67q-.63,2.42-1.24,4.81a.85.85,0,0,0,1.6.58,1,1,0,0,0,0-.17h0c.39-1.61.79-3.22,1.18-4.83C139.69,266.45,139.45,266.14,139,266Z"/><path class="cls-2" d="M162.76,270.36l-.75-.08-.27,2.39.71.05c.59.07,1-.13,1-.85v-.51C163.52,270.72,163.31,270.36,162.76,270.36Z"/><path class="cls-2" d="M162.4,274l-.71-.08c-.1.92-.21,1.85-.31,2.78l.92.1c.54.06.85-.14.92-.81a2.69,2.69,0,0,1,.08-.79C163.39,274.39,163.11,274.1,162.4,274Z"/><path class="cls-2" d="M117.53,99.1a21.15,21.15,0,0,0-2.67,5.28,3.4,3.4,0,0,1,.2.64c.15.74-.22,2.48-1.13,2.6h-.14c-.13.48-.27,1-.4,1.48C111.73,119.36,116,132,126.54,142c-4.87-8.9-7-18.88-5.79-25.08,3-15,20-23.71,36.84-19.72a35.55,35.55,0,0,1,3.76,1.13C145.76,87.16,126.33,87.42,117.53,99.1Z"/><path class="cls-2" d="M244.29,99.1a20.91,20.91,0,0,1,2.68,5.28,3.43,3.43,0,0,0-.21.64c-.14.74.22,2.48,1.13,2.6H248c.14.48.27,1,.4,1.48,1.66,10.26-2.58,22.9-13.15,32.9,4.87-8.9,7-18.88,5.79-25.08-3-15-20-23.71-36.84-19.72a35.55,35.55,0,0,0-3.76,1.13C216.07,87.16,235.49,87.42,244.29,99.1Z"/><path class="cls-2" d="M210.23,72.37a29.94,29.94,0,0,0-5.17-7.73s4.82-3.73,6.82-6.84a6,6,0,0,1-2.73-1.75s4.19-7.89,5.1-9.83l-2.17.48s2.65-5.68,2.8-10.2a98.24,98.24,0,0,0-9.36,5s-.85-1.09-.55-1.89-7,7.95-8.6,8.24c0,0-2.93-.57-.63-4.15a33.62,33.62,0,0,0,3.87-10.83s-3-.75-7.05,2.4c0,0-3.07-2.75-2.51-9.1a4.33,4.33,0,0,0-2.47,1.61S181,15.82,180.81,11.71c-.13,4.11-6.35,16-6.35,16a4.32,4.32,0,0,0-2.5-1.55c.7,6.34-2.32,9.15-2.32,9.15-4.07-3.06-7.1-2.25-7.1-2.25C167,45.68,166.11,48,166.11,48c-1.62-.25-9.09-8.84-8.78-8s-.5,1.91-.5,1.91a97.26,97.26,0,0,0-9.48-4.78c.26,4.51,3,10.13,3,10.13l-2.18-.43c1,1.92,5.31,9.71,5.31,9.71a5.91,5.91,0,0,1-2.68,1.81c2.07,3.07,7,6.69,7,6.69a30.05,30.05,0,0,0-5,7.84c4.84,2.21,14.5-2.15,14.5-2.15l-1,4.51s.54-.33,1.54-.91a47.83,47.83,0,0,1,10.35-2.86,1.78,1.78,0,0,1,2,1.8l0,20.17c0,3.2,2.2,3.54,2.34,0l.39-20.12a1.79,1.79,0,0,1,2.07-1.73,33,33,0,0,1,11.29,3.92l-.95-4.22S205.44,74.68,210.23,72.37Zm-16.47-5c-1.88.24-8.75-1-9.58.34s-2.66,1.74-3.5.71c-.5-.61.84-1.18-8-.8s-4.14-1.67.51-1.56c5.83.13-.71-1.85-3.67-3.76S159.77,54.62,158,50.32s.78-2.24,2.46.4a24.07,24.07,0,0,0,5.07,5.15c10.63,8.14,14.92,9,14.92,9,1.21,0,.36-3.88.15-8s-.58-5-1.26-5.83a49.88,49.88,0,0,0-3.74-4c-10.92-12-5.55-8.83,2.59-1.22,2.81,2.63,2.91,3.27,2.83-2-.05-2.48.08-5.37.18-10.4s1.92-1.32,1.89.39.6,8.08.19,12.62c-.29,3.26,2,.81,6.75-4s6.3-3.68,1,2-7.05,6.24-6.91,12c.2,8.62.8,7.46.8,7.46a69.57,69.57,0,0,0,17.44-11.81c4.25-4.18,4.57-2.9,1.35,1.61a31,31,0,0,1-10.19,8.57c-4.05,2.09-5.8,3-.24,3.06S197.61,66.85,193.76,67.33Z"/><path class="cls-2" d="M150.36,248.74c-3-.93-6-2-8.85-3.22V211.46h7.56c6,0,9,3.54,8.94,10.32,0,3.19-1.35,5.84-2.9,7,2.5,1.92,4.46,6,4.43,10.44C159.48,246.47,156.28,250.61,150.36,248.74ZM149,216.64l-2.88-.13v8.9l2.86.39c2.91.37,4.5-.84,4.52-4.33S151.91,216.78,149,216.64Zm1,14.59c-1.6-.27-2.39-.41-4-.72v11.7c1.57.49,2.36.72,3.95,1.16,3.2.88,5-.83,5-4.94s-1.69-6.66-4.91-7.2Z"/><path class="cls-2" d="M164.5,252.18q.15-20.31.29-40.72h14.34v6.46c-3.89,0-5.84,0-9.73-.12,0,3.67,0,5.51-.06,9.19,3.45.16,5.18.22,8.63.28v6.45c-3.47-.08-5.2-.16-8.65-.4,0,5.29,0,7.94-.08,13.23,4.09.44,6.15.58,10.26.7v6.46A92,92,0,0,1,164.5,252.18Z"/><path class="cls-2" d="M184.28,253.76v-42.3h14.31v6.29c-3.9.09-5.84.12-9.74.16v9.34c3.45-.07,5.18-.13,8.62-.31v6.31c-3.45.26-5.18.35-8.65.45v13.45c4.11-.19,6.17-.37,10.25-.9v6.28A91.67,91.67,0,0,1,184.28,253.76Z"/><path class="cls-2" d="M219.2,247.53c-2.76-3.83-4.17-6-7-10.54-1.46.27-2.19.4-3.65.63,0,5.22.07,7.83.11,13.06-1.85.45-2.78.65-4.64,1q-.15-20.12-.31-40.24h8.62c6.09,0,9.6,5.31,9.62,11.71,0,4.68-1.77,9.08-5.13,11.72a118.75,118.75,0,0,0,7.61,10.63C222.36,246.38,221.31,246.78,219.2,247.53ZM212,217.09l-3.57.13.12,14.65c1.43-.18,2.14-.28,3.56-.48,3-.43,5.19-3,5.16-7.65S214.93,217,212,217.09Z"/></svg>